{
    "asset" : {
        "generator" : "Khronos glTF Blender I/O v3.4.50",
        "version" : "2.0"
    },
    "scene" : 0,
    "scenes" : [
        {
            "name" : "Scene",
            "nodes" : [
                0
            ]
        }
    ],
    "nodes" : [
        {
            "mesh" : 0,
            "name" : "character_dog.001",
            "rotation" : [
                0,
                -0.7071066498756409,
                0,
                0.70710688829422
            ]
        }
    ],
    "materials" : [
        {
            "name" : "Beige.014",
            "pbrMetallicRoughness" : {
                "baseColorFactor" : [
                    0.7029160857200623,
                    0.4253237545490265,
                    0.20689357817173004,
                    1
                ],
                "metallicFactor" : 0,
                "roughnessFactor" : 0.5
            }
        },
        {
            "name" : "Red.032",
            "pbrMetallicRoughness" : {
                "baseColorFactor" : [
                    1,
                    0.02505292184650898,
                    0.11802464723587036,
                    1
                ],
                "metallicFactor" : 0,
                "roughnessFactor" : 0.5
            }
        },
        {
            "name" : "Black.005",
            "pbrMetallicRoughness" : {
                "baseColorFactor" : [
                    0.019794002175331116,
                    0.03207586705684662,
                    0.037408243864774704,
                    1
                ],
                "metallicFactor" : 0,
                "roughnessFactor" : 0.5
            }
        }
    ],
    "meshes" : [
        {
            "name" : "Cube.029",
            "primitives" : [
                {
                    "attributes" : {
                        "POSITION" : 0,
                        "TEXCOORD_0" : 1,
                        "NORMAL" : 2
                    },
                    "indices" : 3,
                    "material" : 0
                },
                {
                    "attributes" : {
                        "POSITION" : 4,
                        "TEXCOORD_0" : 5,
                        "NORMAL" : 6
                    },
                    "indices" : 7,
                    "material" : 1
                },
                {
                    "attributes" : {
                        "POSITION" : 8,
                        "TEXCOORD_0" : 9,
                        "NORMAL" : 10
                    },
                    "indices" : 11,
                    "material" : 2
                }
            ]
        }
    ],
    "accessors" : [
        {
            "bufferView" : 0,
            "componentType" : 5126,
            "count" : 1242,
            "max" : [
                0.6757440567016602,
                1.6376255750656128,
                0.6946104764938354
            ],
            "min" : [
                -0.500003457069397,
                -2.2351741790771484e-08,
                -0.694603443145752
            ],
            "type" : "VEC3"
        },
        {
            "bufferView" : 1,
            "componentType" : 5126,
            "count" : 1242,
            "type" : "VEC2"
        },
        {
            "bufferView" : 2,
            "componentType" : 5126,
            "count" : 1242,
            "type" : "VEC3"
        },
        {
            "bufferView" : 3,
            "componentType" : 5123,
            "count" : 4884,
            "type" : "SCALAR"
        },
        {
            "bufferView" : 4,
            "componentType" : 5126,
            "count" : 67,
            "max" : [
                0.6090475916862488,
                0.984254777431488,
                0.06676914542913437
            ],
            "min" : [
                0.5418891906738281,
                0.7929819226264954,
                -0.06676927953958511
            ],
            "type" : "VEC3"
        },
        {
            "bufferView" : 5,
            "componentType" : 5126,
            "count" : 67,
            "type" : "VEC2"
        },
        {
            "bufferView" : 6,
            "componentType" : 5126,
            "count" : 67,
            "type" : "VEC3"
        },
        {
            "bufferView" : 7,
            "componentType" : 5123,
            "count" : 222,
            "type" : "SCALAR"
        },
        {
            "bufferView" : 8,
            "componentType" : 5126,
            "count" : 192,
            "max" : [
                0.7287483215332031,
                1.1969318389892578,
                0.3305807113647461
            ],
            "min" : [
                0.36318206787109375,
                0.9679018259048462,
                -0.3305809497833252
            ],
            "type" : "VEC3"
        },
        {
            "bufferView" : 9,
            "componentType" : 5126,
            "count" : 192,
            "type" : "VEC2"
        },
        {
            "bufferView" : 10,
            "componentType" : 5126,
            "count" : 192,
            "type" : "VEC3"
        },
        {
            "bufferView" : 11,
            "componentType" : 5123,
            "count" : 594,
            "type" : "SCALAR"
        }
    ],
    "bufferViews" : [
        {
            "buffer" : 0,
            "byteLength" : 14904,
            "byteOffset" : 0,
            "target" : 34962
        },
        {
            "buffer" : 0,
            "byteLength" : 9936,
            "byteOffset" : 14904,
            "target" : 34962
        },
        {
            "buffer" : 0,
            "byteLength" : 14904,
            "byteOffset" : 24840,
            "target" : 34962
        },
        {
            "buffer" : 0,
            "byteLength" : 9768,
            "byteOffset" : 39744,
            "target" : 34963
        },
        {
            "buffer" : 0,
            "byteLength" : 804,
            "byteOffset" : 49512,
            "target" : 34962
        },
        {
            "buffer" : 0,
            "byteLength" : 536,
            "byteOffset" : 50316,
            "target" : 34962
        },
        {
            "buffer" : 0,
            "byteLength" : 804,
            "byteOffset" : 50852,
            "target" : 34962
        },
        {
            "buffer" : 0,
            "byteLength" : 444,
            "byteOffset" : 51656,
            "target" : 34963
        },
        {
            "buffer" : 0,
            "byteLength" : 2304,
            "byteOffset" : 52100,
            "target" : 34962
        },
        {
            "buffer" : 0,
            "byteLength" : 1536,
            "byteOffset" : 54404,
            "target" : 34962
        },
        {
            "buffer" : 0,
            "byteLength" : 2304,
            "byteOffset" : 55940,
            "target" : 34962
        },
        {
            "buffer" : 0,
            "byteLength" : 1188,
            "byteOffset" : 58244,
            "target" : 34963
        }
    ],
    "buffers" : [
        {
            "byteLength" : 59432,
            "uri" : "player-dog.bin"
        }
    ]
}
