{
    "asset" : {
        "generator" : "Khronos glTF Blender I/O v3.4.50",
        "version" : "2.0"
    },
    "scene" : 0,
    "scenes" : [
        {
            "name" : "Scene",
            "nodes" : [
                10
            ]
        }
    ],
    "nodes" : [
        {
            "name" : "Bone.004",
            "rotation" : [
                -0.06750226765871048,
                7.772547398491411e-25,
                1.4988522625628212e-17,
                0.9977192282676697
            ],
            "scale" : [
                1,
                0.9999999403953552,
                0.9999999403953552
            ],
            "translation" : [
                -4.1359030627651384e-24,
                0.5977184772491455,
                -3.725290298461914e-09
            ]
        },
        {
            "children" : [
                0
            ],
            "name" : "Bone.003",
            "rotation" : [
                0.04496050253510475,
                -5.38211791070161e-24,
                -9.983228750832078e-18,
                0.9989888668060303
            ],
            "translation" : [
                -5.790264287871194e-24,
                0.4061557352542877,
                0
            ]
        },
        {
            "children" : [
                1
            ],
            "name" : "Bone.002",
            "rotation" : [
                -0.010646219365298748,
                1.3856060965724814e-23,
                2.36394425830941e-18,
                0.9999433159828186
            ],
            "translation" : [
                -9.512577044359818e-24,
                0.44418731331825256,
                -3.725290298461914e-09
            ]
        },
        {
            "children" : [
                2
            ],
            "name" : "Bone.001",
            "rotation" : [
                -0.028949057683348656,
                -1.0776178809840313e-16,
                -1.0776178809840313e-16,
                0.9995809197425842
            ],
            "translation" : [
                0,
                1,
                0
            ]
        },
        {
            "children" : [
                3
            ],
            "name" : "Bone"
        },
        {
            "mesh" : 0,
            "name" : "Cube.004",
            "skin" : 0
        },
        {
            "children" : [
                5
            ],
            "mesh" : 1,
            "name" : "Cube",
            "skin" : 0
        },
        {
            "mesh" : 2,
            "name" : "Cube.001",
            "skin" : 0
        },
        {
            "mesh" : 3,
            "name" : "Cube.003",
            "skin" : 0
        },
        {
            "mesh" : 4,
            "name" : "Cube.006",
            "skin" : 0
        },
        {
            "children" : [
                6,
                7,
                8,
                9,
                4
            ],
            "name" : "Armature"
        }
    ],
    "animations" : [
        {
            "channels" : [
                {
                    "sampler" : 0,
                    "target" : {
                        "node" : 6,
                        "path" : "translation"
                    }
                },
                {
                    "sampler" : 1,
                    "target" : {
                        "node" : 6,
                        "path" : "rotation"
                    }
                }
            ],
            "name" : "body_idle",
            "samplers" : [
                {
                    "input" : 36,
                    "interpolation" : "LINEAR",
                    "output" : 37
                },
                {
                    "input" : 36,
                    "interpolation" : "LINEAR",
                    "output" : 38
                }
            ]
        },
        {
            "channels" : [
                {
                    "sampler" : 0,
                    "target" : {
                        "node" : 6,
                        "path" : "translation"
                    }
                },
                {
                    "sampler" : 1,
                    "target" : {
                        "node" : 6,
                        "path" : "rotation"
                    }
                }
            ],
            "name" : "idle",
            "samplers" : [
                {
                    "input" : 39,
                    "interpolation" : "STEP",
                    "output" : 40
                },
                {
                    "input" : 39,
                    "interpolation" : "STEP",
                    "output" : 41
                }
            ]
        }
    ],
    "materials" : [
        {
            "doubleSided" : true,
            "name" : "Material",
            "pbrMetallicRoughness" : {
                "baseColorFactor" : [
                    1,
                    1,
                    1,
                    1
                ],
                "metallicFactor" : 0,
                "roughnessFactor" : 0.5
            }
        }
    ],
    "meshes" : [
        {
            "name" : "Cube.005",
            "primitives" : [
                {
                    "attributes" : {
                        "COLOR_0" : 0,
                        "POSITION" : 1,
                        "TEXCOORD_0" : 2,
                        "NORMAL" : 3,
                        "JOINTS_0" : 4,
                        "WEIGHTS_0" : 5
                    },
                    "indices" : 6,
                    "material" : 0
                }
            ]
        },
        {
            "name" : "Cube.001",
            "primitives" : [
                {
                    "attributes" : {
                        "COLOR_0" : 8,
                        "POSITION" : 9,
                        "TEXCOORD_0" : 10,
                        "NORMAL" : 11,
                        "JOINTS_0" : 12,
                        "WEIGHTS_0" : 13
                    },
                    "indices" : 14,
                    "material" : 0
                }
            ]
        },
        {
            "name" : "Cube.002",
            "primitives" : [
                {
                    "attributes" : {
                        "COLOR_0" : 15,
                        "POSITION" : 16,
                        "TEXCOORD_0" : 17,
                        "NORMAL" : 18,
                        "JOINTS_0" : 19,
                        "WEIGHTS_0" : 20
                    },
                    "indices" : 21,
                    "material" : 0
                }
            ]
        },
        {
            "name" : "Cube.003",
            "primitives" : [
                {
                    "attributes" : {
                        "COLOR_0" : 22,
                        "POSITION" : 23,
                        "TEXCOORD_0" : 24,
                        "NORMAL" : 25,
                        "JOINTS_0" : 26,
                        "WEIGHTS_0" : 27
                    },
                    "indices" : 28,
                    "material" : 0
                }
            ]
        },
        {
            "name" : "Cube.003",
            "primitives" : [
                {
                    "attributes" : {
                        "COLOR_0" : 29,
                        "POSITION" : 30,
                        "TEXCOORD_0" : 31,
                        "NORMAL" : 32,
                        "JOINTS_0" : 33,
                        "WEIGHTS_0" : 34
                    },
                    "indices" : 35,
                    "material" : 0
                }
            ]
        }
    ],
    "skins" : [
        {
            "inverseBindMatrices" : 7,
            "joints" : [
                4,
                3,
                2,
                1,
                0
            ],
            "name" : "Armature"
        }
    ],
    "accessors" : [
        {
            "bufferView" : 0,
            "componentType" : 5123,
            "count" : 144,
            "normalized" : true,
            "type" : "VEC4"
        },
        {
            "bufferView" : 1,
            "componentType" : 5126,
            "count" : 144,
            "max" : [
                0.5702411532402039,
                2.6918630599975586,
                0.8487789630889893
            ],
            "min" : [
                -0.5667771697044373,
                1.5009359121322632,
                -0.026904551312327385
            ],
            "type" : "VEC3"
        },
        {
            "bufferView" : 2,
            "componentType" : 5126,
            "count" : 144,
            "type" : "VEC2"
        },
        {
            "bufferView" : 3,
            "componentType" : 5126,
            "count" : 144,
            "type" : "VEC3"
        },
        {
            "bufferView" : 4,
            "componentType" : 5121,
            "count" : 144,
            "type" : "VEC4"
        },
        {
            "bufferView" : 5,
            "componentType" : 5126,
            "count" : 144,
            "type" : "VEC4"
        },
        {
            "bufferView" : 6,
            "componentType" : 5123,
            "count" : 564,
            "type" : "SCALAR"
        },
        {
            "bufferView" : 7,
            "componentType" : 5126,
            "count" : 5,
            "type" : "MAT4"
        },
        {
            "bufferView" : 8,
            "componentType" : 5123,
            "count" : 1337,
            "normalized" : true,
            "type" : "VEC4"
        },
        {
            "bufferView" : 9,
            "componentType" : 5126,
            "count" : 1337,
            "max" : [
                0.9397582411766052,
                2.6458323001861572,
                0.8402196168899536
            ],
            "min" : [
                -0.9397582411766052,
                1.0251855850219727,
                -0.8508908152580261
            ],
            "type" : "VEC3"
        },
        {
            "bufferView" : 10,
            "componentType" : 5126,
            "count" : 1337,
            "type" : "VEC2"
        },
        {
            "bufferView" : 11,
            "componentType" : 5126,
            "count" : 1337,
            "type" : "VEC3"
        },
        {
            "bufferView" : 12,
            "componentType" : 5121,
            "count" : 1337,
            "type" : "VEC4"
        },
        {
            "bufferView" : 13,
            "componentType" : 5126,
            "count" : 1337,
            "type" : "VEC4"
        },
        {
            "bufferView" : 14,
            "componentType" : 5123,
            "count" : 4032,
            "type" : "SCALAR"
        },
        {
            "bufferView" : 15,
            "componentType" : 5123,
            "count" : 490,
            "normalized" : true,
            "type" : "VEC4"
        },
        {
            "bufferView" : 16,
            "componentType" : 5126,
            "count" : 490,
            "max" : [
                0.5947036147117615,
                1.1828587055206299,
                0.7888460755348206
            ],
            "min" : [
                -0.5947036147117615,
                0.45814597606658936,
                -0.7205165028572083
            ],
            "type" : "VEC3"
        },
        {
            "bufferView" : 17,
            "componentType" : 5126,
            "count" : 490,
            "type" : "VEC2"
        },
        {
            "bufferView" : 18,
            "componentType" : 5126,
            "count" : 490,
            "type" : "VEC3"
        },
        {
            "bufferView" : 19,
            "componentType" : 5121,
            "count" : 490,
            "type" : "VEC4"
        },
        {
            "bufferView" : 20,
            "componentType" : 5126,
            "count" : 490,
            "type" : "VEC4"
        },
        {
            "bufferView" : 21,
            "componentType" : 5123,
            "count" : 1350,
            "type" : "SCALAR"
        },
        {
            "bufferView" : 22,
            "componentType" : 5123,
            "count" : 1932,
            "normalized" : true,
            "type" : "VEC4"
        },
        {
            "bufferView" : 23,
            "componentType" : 5126,
            "count" : 1932,
            "max" : [
                1.4381519556045532,
                0.8966878056526184,
                1.2009623050689697
            ],
            "min" : [
                -1.4381519556045532,
                -0.030285311862826347,
                0.44219091534614563
            ],
            "type" : "VEC3"
        },
        {
            "bufferView" : 24,
            "componentType" : 5126,
            "count" : 1932,
            "type" : "VEC2"
        },
        {
            "bufferView" : 25,
            "componentType" : 5126,
            "count" : 1932,
            "type" : "VEC3"
        },
        {
            "bufferView" : 26,
            "componentType" : 5121,
            "count" : 1932,
            "type" : "VEC4"
        },
        {
            "bufferView" : 27,
            "componentType" : 5126,
            "count" : 1932,
            "type" : "VEC4"
        },
        {
            "bufferView" : 28,
            "componentType" : 5123,
            "count" : 6240,
            "type" : "SCALAR"
        },
        {
            "bufferView" : 29,
            "componentType" : 5123,
            "count" : 1932,
            "normalized" : true,
            "type" : "VEC4"
        },
        {
            "bufferView" : 30,
            "componentType" : 5126,
            "count" : 1932,
            "max" : [
                1.3198955059051514,
                0.8966878056526184,
                -0.3279973864555359
            ],
            "min" : [
                -1.319895625114441,
                -0.030285460874438286,
                -1.1249877214431763
            ],
            "type" : "VEC3"
        },
        {
            "bufferView" : 31,
            "componentType" : 5126,
            "count" : 1932,
            "type" : "VEC2"
        },
        {
            "bufferView" : 32,
            "componentType" : 5126,
            "count" : 1932,
            "type" : "VEC3"
        },
        {
            "bufferView" : 33,
            "componentType" : 5121,
            "count" : 1932,
            "type" : "VEC4"
        },
        {
            "bufferView" : 34,
            "componentType" : 5126,
            "count" : 1932,
            "type" : "VEC4"
        },
        {
            "bufferView" : 35,
            "componentType" : 5123,
            "count" : 6240,
            "type" : "SCALAR"
        },
        {
            "bufferView" : 36,
            "componentType" : 5126,
            "count" : 97,
            "max" : [
                4
            ],
            "min" : [
                0
            ],
            "type" : "SCALAR"
        },
        {
            "bufferView" : 37,
            "componentType" : 5126,
            "count" : 97,
            "type" : "VEC3"
        },
        {
            "bufferView" : 38,
            "componentType" : 5126,
            "count" : 97,
            "type" : "VEC4"
        },
        {
            "bufferView" : 39,
            "componentType" : 5126,
            "count" : 101,
            "max" : [
                4.166666666666667
            ],
            "min" : [
                0
            ],
            "type" : "SCALAR"
        },
        {
            "bufferView" : 40,
            "componentType" : 5126,
            "count" : 101,
            "type" : "VEC3"
        },
        {
            "bufferView" : 41,
            "componentType" : 5126,
            "count" : 101,
            "type" : "VEC4"
        }
    ],
    "bufferViews" : [
        {
            "buffer" : 0,
            "byteLength" : 1152,
            "byteOffset" : 0,
            "target" : 34962
        },
        {
            "buffer" : 0,
            "byteLength" : 1728,
            "byteOffset" : 1152,
            "target" : 34962
        },
        {
            "buffer" : 0,
            "byteLength" : 1152,
            "byteOffset" : 2880,
            "target" : 34962
        },
        {
            "buffer" : 0,
            "byteLength" : 1728,
            "byteOffset" : 4032,
            "target" : 34962
        },
        {
            "buffer" : 0,
            "byteLength" : 576,
            "byteOffset" : 5760,
            "target" : 34962
        },
        {
            "buffer" : 0,
            "byteLength" : 2304,
            "byteOffset" : 6336,
            "target" : 34962
        },
        {
            "buffer" : 0,
            "byteLength" : 1128,
            "byteOffset" : 8640,
            "target" : 34963
        },
        {
            "buffer" : 0,
            "byteLength" : 320,
            "byteOffset" : 9768
        },
        {
            "buffer" : 0,
            "byteLength" : 10696,
            "byteOffset" : 10088,
            "target" : 34962
        },
        {
            "buffer" : 0,
            "byteLength" : 16044,
            "byteOffset" : 20784,
            "target" : 34962
        },
        {
            "buffer" : 0,
            "byteLength" : 10696,
            "byteOffset" : 36828,
            "target" : 34962
        },
        {
            "buffer" : 0,
            "byteLength" : 16044,
            "byteOffset" : 47524,
            "target" : 34962
        },
        {
            "buffer" : 0,
            "byteLength" : 5348,
            "byteOffset" : 63568,
            "target" : 34962
        },
        {
            "buffer" : 0,
            "byteLength" : 21392,
            "byteOffset" : 68916,
            "target" : 34962
        },
        {
            "buffer" : 0,
            "byteLength" : 8064,
            "byteOffset" : 90308,
            "target" : 34963
        },
        {
            "buffer" : 0,
            "byteLength" : 3920,
            "byteOffset" : 98372,
            "target" : 34962
        },
        {
            "buffer" : 0,
            "byteLength" : 5880,
            "byteOffset" : 102292,
            "target" : 34962
        },
        {
            "buffer" : 0,
            "byteLength" : 3920,
            "byteOffset" : 108172,
            "target" : 34962
        },
        {
            "buffer" : 0,
            "byteLength" : 5880,
            "byteOffset" : 112092,
            "target" : 34962
        },
        {
            "buffer" : 0,
            "byteLength" : 1960,
            "byteOffset" : 117972,
            "target" : 34962
        },
        {
            "buffer" : 0,
            "byteLength" : 7840,
            "byteOffset" : 119932,
            "target" : 34962
        },
        {
            "buffer" : 0,
            "byteLength" : 2700,
            "byteOffset" : 127772,
            "target" : 34963
        },
        {
            "buffer" : 0,
            "byteLength" : 15456,
            "byteOffset" : 130472,
            "target" : 34962
        },
        {
            "buffer" : 0,
            "byteLength" : 23184,
            "byteOffset" : 145928,
            "target" : 34962
        },
        {
            "buffer" : 0,
            "byteLength" : 15456,
            "byteOffset" : 169112,
            "target" : 34962
        },
        {
            "buffer" : 0,
            "byteLength" : 23184,
            "byteOffset" : 184568,
            "target" : 34962
        },
        {
            "buffer" : 0,
            "byteLength" : 7728,
            "byteOffset" : 207752,
            "target" : 34962
        },
        {
            "buffer" : 0,
            "byteLength" : 30912,
            "byteOffset" : 215480,
            "target" : 34962
        },
        {
            "buffer" : 0,
            "byteLength" : 12480,
            "byteOffset" : 246392,
            "target" : 34963
        },
        {
            "buffer" : 0,
            "byteLength" : 15456,
            "byteOffset" : 258872,
            "target" : 34962
        },
        {
            "buffer" : 0,
            "byteLength" : 23184,
            "byteOffset" : 274328,
            "target" : 34962
        },
        {
            "buffer" : 0,
            "byteLength" : 15456,
            "byteOffset" : 297512,
            "target" : 34962
        },
        {
            "buffer" : 0,
            "byteLength" : 23184,
            "byteOffset" : 312968,
            "target" : 34962
        },
        {
            "buffer" : 0,
            "byteLength" : 7728,
            "byteOffset" : 336152,
            "target" : 34962
        },
        {
            "buffer" : 0,
            "byteLength" : 30912,
            "byteOffset" : 343880,
            "target" : 34962
        },
        {
            "buffer" : 0,
            "byteLength" : 12480,
            "byteOffset" : 374792,
            "target" : 34963
        },
        {
            "buffer" : 0,
            "byteLength" : 388,
            "byteOffset" : 387272
        },
        {
            "buffer" : 0,
            "byteLength" : 1164,
            "byteOffset" : 387660
        },
        {
            "buffer" : 0,
            "byteLength" : 1552,
            "byteOffset" : 388824
        },
        {
            "buffer" : 0,
            "byteLength" : 404,
            "byteOffset" : 390376
        },
        {
            "buffer" : 0,
            "byteLength" : 1212,
            "byteOffset" : 390780
        },
        {
            "buffer" : 0,
            "byteLength" : 1616,
            "byteOffset" : 391992
        }
    ],
    "buffers" : [
        {
            "byteLength" : 393608,
            "uri" : "wiggle-spider.bin"
        }
    ]
}
