{
    "asset" : {
        "generator" : "Khronos glTF Blender I/O v3.4.50",
        "version" : "2.0"
    },
    "scene" : 0,
    "scenes" : [
        {
            "name" : "Scene",
            "nodes" : [
                10
            ]
        }
    ],
    "nodes" : [
        {
            "name" : "Bone.003",
            "rotation" : [
                0.08469764143228531,
                7.08313097064206e-09,
                -0.000266281800577417,
                0.9964066743850708
            ],
            "scale" : [
                0.9999998807907104,
                0.9999998211860657,
                0.9999998807907104
            ],
            "translation" : [
                6.082700565457344e-09,
                0.7375524044036865,
                1.1408701539039612e-08
            ]
        },
        {
            "children" : [
                0
            ],
            "name" : "Bone.002",
            "rotation" : [
                -0.21826069056987762,
                -0.014148144982755184,
                -0.19326341152191162,
                0.9564577341079712
            ],
            "translation" : [
                -2.9802322387695312e-08,
                1.1315242052078247,
                0
            ]
        },
        {
            "name" : "Bone.005",
            "rotation" : [
                -0.2004445344209671,
                -4.198365388674574e-08,
                0.08453604578971863,
                0.9760510921478271
            ],
            "scale" : [
                1,
                0.9999999403953552,
                0.9999999403953552
            ],
            "translation" : [
                1.4901161193847656e-08,
                2.177286148071289,
                4.470348358154297e-08
            ]
        },
        {
            "children" : [
                2
            ],
            "name" : "Bone.004",
            "rotation" : [
                -0.7954819202423096,
                -0.00597746018320322,
                0.0009025759063661098,
                0.6059473752975464
            ],
            "scale" : [
                1,
                0.9999999403953552,
                1
            ],
            "translation" : [
                -2.9802322387695312e-08,
                1.1315242052078247,
                0
            ]
        },
        {
            "name" : "Bone.008",
            "rotation" : [
                0.052712611854076385,
                7.463734519319587e-09,
                0.02725851535797119,
                0.9982376098632812
            ],
            "translation" : [
                -5.960464477539063e-08,
                0.5086427330970764,
                1.6391277313232422e-07
            ]
        },
        {
            "children" : [
                4
            ],
            "name" : "Bone.007",
            "rotation" : [
                0.20765164494514465,
                -1.0728074073540483e-07,
                0.10738002508878708,
                0.9722912907600403
            ],
            "scale" : [
                0.9999999403953552,
                1,
                0.9999999403953552
            ],
            "translation" : [
                1.1548399925231934e-07,
                1.1532410383224487,
                -8.195638656616211e-08
            ]
        },
        {
            "children" : [
                5
            ],
            "name" : "Bone.006",
            "rotation" : [
                0.6584942936897278,
                0.012669660151004791,
                0.05525258928537369,
                0.7504478693008423
            ],
            "scale" : [
                1.0000001192092896,
                1.0000001192092896,
                1
            ],
            "translation" : [
                -2.9802322387695312e-08,
                1.1315242052078247,
                0
            ]
        },
        {
            "children" : [
                1,
                3,
                6
            ],
            "name" : "Bone.001",
            "rotation" : [
                0.0901535302400589,
                0.038019970059394836,
                0.19025708734989166,
                0.9768465161323547
            ],
            "scale" : [
                1,
                0.9999999403953552,
                1
            ],
            "translation" : [
                0,
                1,
                0
            ]
        },
        {
            "children" : [
                7
            ],
            "name" : "Bone",
            "translation" : [
                -2.685983496518504e-17,
                0.12096595019102097,
                0.8807832598686218
            ]
        },
        {
            "mesh" : 0,
            "name" : "Roundcube",
            "skin" : 0
        },
        {
            "children" : [
                9,
                8
            ],
            "name" : "Armature",
            "translation" : [
                0,
                -0.09925930202007294,
                -0.8758174180984497
            ]
        }
    ],
    "animations" : [
        {
            "channels" : [
                {
                    "sampler" : 0,
                    "target" : {
                        "node" : 8,
                        "path" : "translation"
                    }
                },
                {
                    "sampler" : 1,
                    "target" : {
                        "node" : 8,
                        "path" : "rotation"
                    }
                },
                {
                    "sampler" : 2,
                    "target" : {
                        "node" : 8,
                        "path" : "scale"
                    }
                },
                {
                    "sampler" : 3,
                    "target" : {
                        "node" : 7,
                        "path" : "translation"
                    }
                },
                {
                    "sampler" : 4,
                    "target" : {
                        "node" : 7,
                        "path" : "rotation"
                    }
                },
                {
                    "sampler" : 5,
                    "target" : {
                        "node" : 7,
                        "path" : "scale"
                    }
                },
                {
                    "sampler" : 6,
                    "target" : {
                        "node" : 1,
                        "path" : "translation"
                    }
                },
                {
                    "sampler" : 7,
                    "target" : {
                        "node" : 1,
                        "path" : "rotation"
                    }
                },
                {
                    "sampler" : 8,
                    "target" : {
                        "node" : 1,
                        "path" : "scale"
                    }
                },
                {
                    "sampler" : 9,
                    "target" : {
                        "node" : 0,
                        "path" : "translation"
                    }
                },
                {
                    "sampler" : 10,
                    "target" : {
                        "node" : 0,
                        "path" : "rotation"
                    }
                },
                {
                    "sampler" : 11,
                    "target" : {
                        "node" : 0,
                        "path" : "scale"
                    }
                },
                {
                    "sampler" : 12,
                    "target" : {
                        "node" : 3,
                        "path" : "translation"
                    }
                },
                {
                    "sampler" : 13,
                    "target" : {
                        "node" : 3,
                        "path" : "rotation"
                    }
                },
                {
                    "sampler" : 14,
                    "target" : {
                        "node" : 3,
                        "path" : "scale"
                    }
                },
                {
                    "sampler" : 15,
                    "target" : {
                        "node" : 2,
                        "path" : "translation"
                    }
                },
                {
                    "sampler" : 16,
                    "target" : {
                        "node" : 2,
                        "path" : "rotation"
                    }
                },
                {
                    "sampler" : 17,
                    "target" : {
                        "node" : 2,
                        "path" : "scale"
                    }
                },
                {
                    "sampler" : 18,
                    "target" : {
                        "node" : 6,
                        "path" : "translation"
                    }
                },
                {
                    "sampler" : 19,
                    "target" : {
                        "node" : 6,
                        "path" : "rotation"
                    }
                },
                {
                    "sampler" : 20,
                    "target" : {
                        "node" : 6,
                        "path" : "scale"
                    }
                },
                {
                    "sampler" : 21,
                    "target" : {
                        "node" : 5,
                        "path" : "translation"
                    }
                },
                {
                    "sampler" : 22,
                    "target" : {
                        "node" : 5,
                        "path" : "rotation"
                    }
                },
                {
                    "sampler" : 23,
                    "target" : {
                        "node" : 5,
                        "path" : "scale"
                    }
                },
                {
                    "sampler" : 24,
                    "target" : {
                        "node" : 4,
                        "path" : "translation"
                    }
                },
                {
                    "sampler" : 25,
                    "target" : {
                        "node" : 4,
                        "path" : "rotation"
                    }
                },
                {
                    "sampler" : 26,
                    "target" : {
                        "node" : 4,
                        "path" : "scale"
                    }
                }
            ],
            "name" : "ArmatureAction.002",
            "samplers" : [
                {
                    "input" : 6,
                    "interpolation" : "LINEAR",
                    "output" : 7
                },
                {
                    "input" : 6,
                    "interpolation" : "LINEAR",
                    "output" : 8
                },
                {
                    "input" : 6,
                    "interpolation" : "LINEAR",
                    "output" : 9
                },
                {
                    "input" : 6,
                    "interpolation" : "LINEAR",
                    "output" : 10
                },
                {
                    "input" : 6,
                    "interpolation" : "LINEAR",
                    "output" : 11
                },
                {
                    "input" : 6,
                    "interpolation" : "LINEAR",
                    "output" : 12
                },
                {
                    "input" : 6,
                    "interpolation" : "LINEAR",
                    "output" : 13
                },
                {
                    "input" : 6,
                    "interpolation" : "LINEAR",
                    "output" : 14
                },
                {
                    "input" : 6,
                    "interpolation" : "LINEAR",
                    "output" : 15
                },
                {
                    "input" : 6,
                    "interpolation" : "LINEAR",
                    "output" : 16
                },
                {
                    "input" : 6,
                    "interpolation" : "LINEAR",
                    "output" : 17
                },
                {
                    "input" : 6,
                    "interpolation" : "LINEAR",
                    "output" : 18
                },
                {
                    "input" : 6,
                    "interpolation" : "LINEAR",
                    "output" : 19
                },
                {
                    "input" : 6,
                    "interpolation" : "LINEAR",
                    "output" : 20
                },
                {
                    "input" : 6,
                    "interpolation" : "LINEAR",
                    "output" : 21
                },
                {
                    "input" : 6,
                    "interpolation" : "LINEAR",
                    "output" : 22
                },
                {
                    "input" : 6,
                    "interpolation" : "LINEAR",
                    "output" : 23
                },
                {
                    "input" : 6,
                    "interpolation" : "LINEAR",
                    "output" : 24
                },
                {
                    "input" : 6,
                    "interpolation" : "LINEAR",
                    "output" : 25
                },
                {
                    "input" : 6,
                    "interpolation" : "LINEAR",
                    "output" : 26
                },
                {
                    "input" : 6,
                    "interpolation" : "LINEAR",
                    "output" : 27
                },
                {
                    "input" : 6,
                    "interpolation" : "LINEAR",
                    "output" : 28
                },
                {
                    "input" : 6,
                    "interpolation" : "LINEAR",
                    "output" : 29
                },
                {
                    "input" : 6,
                    "interpolation" : "LINEAR",
                    "output" : 30
                },
                {
                    "input" : 6,
                    "interpolation" : "LINEAR",
                    "output" : 31
                },
                {
                    "input" : 6,
                    "interpolation" : "LINEAR",
                    "output" : 32
                },
                {
                    "input" : 6,
                    "interpolation" : "LINEAR",
                    "output" : 33
                }
            ]
        }
    ],
    "meshes" : [
        {
            "name" : "Roundcube",
            "primitives" : [
                {
                    "attributes" : {
                        "POSITION" : 0,
                        "NORMAL" : 1,
                        "JOINTS_0" : 2,
                        "WEIGHTS_0" : 3
                    },
                    "indices" : 4
                }
            ]
        }
    ],
    "skins" : [
        {
            "inverseBindMatrices" : 5,
            "joints" : [
                8,
                7,
                1,
                0,
                3,
                2,
                6,
                5,
                4
            ],
            "name" : "Armature"
        }
    ],
    "accessors" : [
        {
            "bufferView" : 0,
            "componentType" : 5126,
            "count" : 4018,
            "max" : [
                1.2123544216156006,
                3.898671865463257,
                2.611013889312744
            ],
            "min" : [
                -1.2123544216156006,
                -1,
                -3.0328805446624756
            ],
            "type" : "VEC3"
        },
        {
            "bufferView" : 1,
            "componentType" : 5126,
            "count" : 4018,
            "type" : "VEC3"
        },
        {
            "bufferView" : 2,
            "componentType" : 5121,
            "count" : 4018,
            "type" : "VEC4"
        },
        {
            "bufferView" : 3,
            "componentType" : 5126,
            "count" : 4018,
            "type" : "VEC4"
        },
        {
            "bufferView" : 4,
            "componentType" : 5123,
            "count" : 6336,
            "type" : "SCALAR"
        },
        {
            "bufferView" : 5,
            "componentType" : 5126,
            "count" : 9,
            "type" : "MAT4"
        },
        {
            "bufferView" : 6,
            "componentType" : 5126,
            "count" : 155,
            "max" : [
                6.75
            ],
            "min" : [
                0.3333333333333333
            ],
            "type" : "SCALAR"
        },
        {
            "bufferView" : 7,
            "componentType" : 5126,
            "count" : 155,
            "type" : "VEC3"
        },
        {
            "bufferView" : 8,
            "componentType" : 5126,
            "count" : 155,
            "type" : "VEC4"
        },
        {
            "bufferView" : 9,
            "componentType" : 5126,
            "count" : 155,
            "type" : "VEC3"
        },
        {
            "bufferView" : 10,
            "componentType" : 5126,
            "count" : 155,
            "type" : "VEC3"
        },
        {
            "bufferView" : 11,
            "componentType" : 5126,
            "count" : 155,
            "type" : "VEC4"
        },
        {
            "bufferView" : 12,
            "componentType" : 5126,
            "count" : 155,
            "type" : "VEC3"
        },
        {
            "bufferView" : 13,
            "componentType" : 5126,
            "count" : 155,
            "type" : "VEC3"
        },
        {
            "bufferView" : 14,
            "componentType" : 5126,
            "count" : 155,
            "type" : "VEC4"
        },
        {
            "bufferView" : 15,
            "componentType" : 5126,
            "count" : 155,
            "type" : "VEC3"
        },
        {
            "bufferView" : 16,
            "componentType" : 5126,
            "count" : 155,
            "type" : "VEC3"
        },
        {
            "bufferView" : 17,
            "componentType" : 5126,
            "count" : 155,
            "type" : "VEC4"
        },
        {
            "bufferView" : 18,
            "componentType" : 5126,
            "count" : 155,
            "type" : "VEC3"
        },
        {
            "bufferView" : 19,
            "componentType" : 5126,
            "count" : 155,
            "type" : "VEC3"
        },
        {
            "bufferView" : 20,
            "componentType" : 5126,
            "count" : 155,
            "type" : "VEC4"
        },
        {
            "bufferView" : 21,
            "componentType" : 5126,
            "count" : 155,
            "type" : "VEC3"
        },
        {
            "bufferView" : 22,
            "componentType" : 5126,
            "count" : 155,
            "type" : "VEC3"
        },
        {
            "bufferView" : 23,
            "componentType" : 5126,
            "count" : 155,
            "type" : "VEC4"
        },
        {
            "bufferView" : 24,
            "componentType" : 5126,
            "count" : 155,
            "type" : "VEC3"
        },
        {
            "bufferView" : 25,
            "componentType" : 5126,
            "count" : 155,
            "type" : "VEC3"
        },
        {
            "bufferView" : 26,
            "componentType" : 5126,
            "count" : 155,
            "type" : "VEC4"
        },
        {
            "bufferView" : 27,
            "componentType" : 5126,
            "count" : 155,
            "type" : "VEC3"
        },
        {
            "bufferView" : 28,
            "componentType" : 5126,
            "count" : 155,
            "type" : "VEC3"
        },
        {
            "bufferView" : 29,
            "componentType" : 5126,
            "count" : 155,
            "type" : "VEC4"
        },
        {
            "bufferView" : 30,
            "componentType" : 5126,
            "count" : 155,
            "type" : "VEC3"
        },
        {
            "bufferView" : 31,
            "componentType" : 5126,
            "count" : 155,
            "type" : "VEC3"
        },
        {
            "bufferView" : 32,
            "componentType" : 5126,
            "count" : 155,
            "type" : "VEC4"
        },
        {
            "bufferView" : 33,
            "componentType" : 5126,
            "count" : 155,
            "type" : "VEC3"
        }
    ],
    "bufferViews" : [
        {
            "buffer" : 0,
            "byteLength" : 48216,
            "byteOffset" : 0,
            "target" : 34962
        },
        {
            "buffer" : 0,
            "byteLength" : 48216,
            "byteOffset" : 48216,
            "target" : 34962
        },
        {
            "buffer" : 0,
            "byteLength" : 16072,
            "byteOffset" : 96432,
            "target" : 34962
        },
        {
            "buffer" : 0,
            "byteLength" : 64288,
            "byteOffset" : 112504,
            "target" : 34962
        },
        {
            "buffer" : 0,
            "byteLength" : 12672,
            "byteOffset" : 176792,
            "target" : 34963
        },
        {
            "buffer" : 0,
            "byteLength" : 576,
            "byteOffset" : 189464
        },
        {
            "buffer" : 0,
            "byteLength" : 620,
            "byteOffset" : 190040
        },
        {
            "buffer" : 0,
            "byteLength" : 1860,
            "byteOffset" : 190660
        },
        {
            "buffer" : 0,
            "byteLength" : 2480,
            "byteOffset" : 192520
        },
        {
            "buffer" : 0,
            "byteLength" : 1860,
            "byteOffset" : 195000
        },
        {
            "buffer" : 0,
            "byteLength" : 1860,
            "byteOffset" : 196860
        },
        {
            "buffer" : 0,
            "byteLength" : 2480,
            "byteOffset" : 198720
        },
        {
            "buffer" : 0,
            "byteLength" : 1860,
            "byteOffset" : 201200
        },
        {
            "buffer" : 0,
            "byteLength" : 1860,
            "byteOffset" : 203060
        },
        {
            "buffer" : 0,
            "byteLength" : 2480,
            "byteOffset" : 204920
        },
        {
            "buffer" : 0,
            "byteLength" : 1860,
            "byteOffset" : 207400
        },
        {
            "buffer" : 0,
            "byteLength" : 1860,
            "byteOffset" : 209260
        },
        {
            "buffer" : 0,
            "byteLength" : 2480,
            "byteOffset" : 211120
        },
        {
            "buffer" : 0,
            "byteLength" : 1860,
            "byteOffset" : 213600
        },
        {
            "buffer" : 0,
            "byteLength" : 1860,
            "byteOffset" : 215460
        },
        {
            "buffer" : 0,
            "byteLength" : 2480,
            "byteOffset" : 217320
        },
        {
            "buffer" : 0,
            "byteLength" : 1860,
            "byteOffset" : 219800
        },
        {
            "buffer" : 0,
            "byteLength" : 1860,
            "byteOffset" : 221660
        },
        {
            "buffer" : 0,
            "byteLength" : 2480,
            "byteOffset" : 223520
        },
        {
            "buffer" : 0,
            "byteLength" : 1860,
            "byteOffset" : 226000
        },
        {
            "buffer" : 0,
            "byteLength" : 1860,
            "byteOffset" : 227860
        },
        {
            "buffer" : 0,
            "byteLength" : 2480,
            "byteOffset" : 229720
        },
        {
            "buffer" : 0,
            "byteLength" : 1860,
            "byteOffset" : 232200
        },
        {
            "buffer" : 0,
            "byteLength" : 1860,
            "byteOffset" : 234060
        },
        {
            "buffer" : 0,
            "byteLength" : 2480,
            "byteOffset" : 235920
        },
        {
            "buffer" : 0,
            "byteLength" : 1860,
            "byteOffset" : 238400
        },
        {
            "buffer" : 0,
            "byteLength" : 1860,
            "byteOffset" : 240260
        },
        {
            "buffer" : 0,
            "byteLength" : 2480,
            "byteOffset" : 242120
        },
        {
            "buffer" : 0,
            "byteLength" : 1860,
            "byteOffset" : 244600
        }
    ],
    "buffers" : [
        {
            "byteLength" : 246460,
            "uri" : "wiggle.bin"
        }
    ]
}
