{
    "asset" : {
        "generator" : "Khronos glTF Blender I/O v3.4.50",
        "version" : "2.0"
    },
    "scene" : 0,
    "scenes" : [
        {
            "name" : "Scene",
            "nodes" : [
                5
            ]
        }
    ],
    "nodes" : [
        {
            "name" : "Bone.003",
            "rotation" : [
                -0.055345673114061356,
                2.069544535743262e-09,
                0.00017398124327883124,
                0.9984673261642456
            ],
            "scale" : [
                1,
                0.9999999403953552,
                1
            ],
            "translation" : [
                -6.2427716329693794e-09,
                0.8715629577636719,
                -2.561137080192566e-09
            ]
        },
        {
            "children" : [
                0
            ],
            "name" : "Bone.002",
            "rotation" : [
                0.007334226276725531,
                -0.02327965758740902,
                -0.2192269116640091,
                0.9753686189651489
            ],
            "scale" : [
                0.9999999403953552,
                0.9999998807907104,
                0.9999999403953552
            ],
            "translation" : [
                -7.566995918750763e-09,
                0.9646117091178894,
                0
            ]
        },
        {
            "children" : [
                1
            ],
            "name" : "Bone.001",
            "rotation" : [
                0.00027604837669059634,
                0.01995786465704441,
                0.21938517689704895,
                0.9754341244697571
            ],
            "translation" : [
                0,
                1,
                0
            ]
        },
        {
            "children" : [
                2
            ],
            "name" : "Bone",
            "translation" : [
                -2.685983496518504e-17,
                0.12096595019102097,
                0.8807832598686218
            ]
        },
        {
            "mesh" : 0,
            "name" : "Roundcube",
            "skin" : 0
        },
        {
            "children" : [
                4,
                3
            ],
            "name" : "Armature",
            "translation" : [
                0,
                -0.09925930202007294,
                -0.8758174180984497
            ]
        }
    ],
    "animations" : [
        {
            "channels" : [
                {
                    "sampler" : 0,
                    "target" : {
                        "node" : 3,
                        "path" : "translation"
                    }
                },
                {
                    "sampler" : 1,
                    "target" : {
                        "node" : 3,
                        "path" : "rotation"
                    }
                },
                {
                    "sampler" : 2,
                    "target" : {
                        "node" : 3,
                        "path" : "scale"
                    }
                },
                {
                    "sampler" : 3,
                    "target" : {
                        "node" : 2,
                        "path" : "translation"
                    }
                },
                {
                    "sampler" : 4,
                    "target" : {
                        "node" : 2,
                        "path" : "rotation"
                    }
                },
                {
                    "sampler" : 5,
                    "target" : {
                        "node" : 2,
                        "path" : "scale"
                    }
                },
                {
                    "sampler" : 6,
                    "target" : {
                        "node" : 1,
                        "path" : "translation"
                    }
                },
                {
                    "sampler" : 7,
                    "target" : {
                        "node" : 1,
                        "path" : "rotation"
                    }
                },
                {
                    "sampler" : 8,
                    "target" : {
                        "node" : 1,
                        "path" : "scale"
                    }
                },
                {
                    "sampler" : 9,
                    "target" : {
                        "node" : 0,
                        "path" : "translation"
                    }
                },
                {
                    "sampler" : 10,
                    "target" : {
                        "node" : 0,
                        "path" : "rotation"
                    }
                },
                {
                    "sampler" : 11,
                    "target" : {
                        "node" : 0,
                        "path" : "scale"
                    }
                }
            ],
            "name" : "ArmatureAction.002",
            "samplers" : [
                {
                    "input" : 6,
                    "interpolation" : "LINEAR",
                    "output" : 7
                },
                {
                    "input" : 6,
                    "interpolation" : "LINEAR",
                    "output" : 8
                },
                {
                    "input" : 6,
                    "interpolation" : "LINEAR",
                    "output" : 9
                },
                {
                    "input" : 6,
                    "interpolation" : "LINEAR",
                    "output" : 10
                },
                {
                    "input" : 6,
                    "interpolation" : "LINEAR",
                    "output" : 11
                },
                {
                    "input" : 6,
                    "interpolation" : "LINEAR",
                    "output" : 12
                },
                {
                    "input" : 6,
                    "interpolation" : "LINEAR",
                    "output" : 13
                },
                {
                    "input" : 6,
                    "interpolation" : "LINEAR",
                    "output" : 14
                },
                {
                    "input" : 6,
                    "interpolation" : "LINEAR",
                    "output" : 15
                },
                {
                    "input" : 6,
                    "interpolation" : "LINEAR",
                    "output" : 16
                },
                {
                    "input" : 6,
                    "interpolation" : "LINEAR",
                    "output" : 17
                },
                {
                    "input" : 6,
                    "interpolation" : "LINEAR",
                    "output" : 18
                }
            ]
        }
    ],
    "meshes" : [
        {
            "name" : "Roundcube",
            "primitives" : [
                {
                    "attributes" : {
                        "POSITION" : 0,
                        "NORMAL" : 1,
                        "JOINTS_0" : 2,
                        "WEIGHTS_0" : 3
                    },
                    "indices" : 4
                }
            ]
        }
    ],
    "skins" : [
        {
            "inverseBindMatrices" : 5,
            "joints" : [
                3,
                2,
                1,
                0
            ],
            "name" : "Armature"
        }
    ],
    "accessors" : [
        {
            "bufferView" : 0,
            "componentType" : 5126,
            "count" : 4018,
            "max" : [
                1.2123544216156006,
                3.898671865463257,
                2.611013889312744
            ],
            "min" : [
                -1.2123544216156006,
                -1,
                -3.0328805446624756
            ],
            "type" : "VEC3"
        },
        {
            "bufferView" : 1,
            "componentType" : 5126,
            "count" : 4018,
            "type" : "VEC3"
        },
        {
            "bufferView" : 2,
            "componentType" : 5121,
            "count" : 4018,
            "type" : "VEC4"
        },
        {
            "bufferView" : 3,
            "componentType" : 5126,
            "count" : 4018,
            "type" : "VEC4"
        },
        {
            "bufferView" : 4,
            "componentType" : 5123,
            "count" : 6336,
            "type" : "SCALAR"
        },
        {
            "bufferView" : 5,
            "componentType" : 5126,
            "count" : 4,
            "type" : "MAT4"
        },
        {
            "bufferView" : 6,
            "componentType" : 5126,
            "count" : 155,
            "max" : [
                6.75
            ],
            "min" : [
                0.3333333333333333
            ],
            "type" : "SCALAR"
        },
        {
            "bufferView" : 7,
            "componentType" : 5126,
            "count" : 155,
            "type" : "VEC3"
        },
        {
            "bufferView" : 8,
            "componentType" : 5126,
            "count" : 155,
            "type" : "VEC4"
        },
        {
            "bufferView" : 9,
            "componentType" : 5126,
            "count" : 155,
            "type" : "VEC3"
        },
        {
            "bufferView" : 10,
            "componentType" : 5126,
            "count" : 155,
            "type" : "VEC3"
        },
        {
            "bufferView" : 11,
            "componentType" : 5126,
            "count" : 155,
            "type" : "VEC4"
        },
        {
            "bufferView" : 12,
            "componentType" : 5126,
            "count" : 155,
            "type" : "VEC3"
        },
        {
            "bufferView" : 13,
            "componentType" : 5126,
            "count" : 155,
            "type" : "VEC3"
        },
        {
            "bufferView" : 14,
            "componentType" : 5126,
            "count" : 155,
            "type" : "VEC4"
        },
        {
            "bufferView" : 15,
            "componentType" : 5126,
            "count" : 155,
            "type" : "VEC3"
        },
        {
            "bufferView" : 16,
            "componentType" : 5126,
            "count" : 155,
            "type" : "VEC3"
        },
        {
            "bufferView" : 17,
            "componentType" : 5126,
            "count" : 155,
            "type" : "VEC4"
        },
        {
            "bufferView" : 18,
            "componentType" : 5126,
            "count" : 155,
            "type" : "VEC3"
        }
    ],
    "bufferViews" : [
        {
            "buffer" : 0,
            "byteLength" : 48216,
            "byteOffset" : 0,
            "target" : 34962
        },
        {
            "buffer" : 0,
            "byteLength" : 48216,
            "byteOffset" : 48216,
            "target" : 34962
        },
        {
            "buffer" : 0,
            "byteLength" : 16072,
            "byteOffset" : 96432,
            "target" : 34962
        },
        {
            "buffer" : 0,
            "byteLength" : 64288,
            "byteOffset" : 112504,
            "target" : 34962
        },
        {
            "buffer" : 0,
            "byteLength" : 12672,
            "byteOffset" : 176792,
            "target" : 34963
        },
        {
            "buffer" : 0,
            "byteLength" : 256,
            "byteOffset" : 189464
        },
        {
            "buffer" : 0,
            "byteLength" : 620,
            "byteOffset" : 189720
        },
        {
            "buffer" : 0,
            "byteLength" : 1860,
            "byteOffset" : 190340
        },
        {
            "buffer" : 0,
            "byteLength" : 2480,
            "byteOffset" : 192200
        },
        {
            "buffer" : 0,
            "byteLength" : 1860,
            "byteOffset" : 194680
        },
        {
            "buffer" : 0,
            "byteLength" : 1860,
            "byteOffset" : 196540
        },
        {
            "buffer" : 0,
            "byteLength" : 2480,
            "byteOffset" : 198400
        },
        {
            "buffer" : 0,
            "byteLength" : 1860,
            "byteOffset" : 200880
        },
        {
            "buffer" : 0,
            "byteLength" : 1860,
            "byteOffset" : 202740
        },
        {
            "buffer" : 0,
            "byteLength" : 2480,
            "byteOffset" : 204600
        },
        {
            "buffer" : 0,
            "byteLength" : 1860,
            "byteOffset" : 207080
        },
        {
            "buffer" : 0,
            "byteLength" : 1860,
            "byteOffset" : 208940
        },
        {
            "buffer" : 0,
            "byteLength" : 2480,
            "byteOffset" : 210800
        },
        {
            "buffer" : 0,
            "byteLength" : 1860,
            "byteOffset" : 213280
        }
    ],
    "buffers" : [
        {
            "byteLength" : 215140,
            "uri" : "wiggke.bin"
        }
    ]
}
