{
    "asset" : {
        "generator" : "Khronos glTF Blender I/O v3.4.50",
        "version" : "2.0"
    },
    "extensionsUsed" : [
        "KHR_materials_clearcoat",
        "KHR_materials_emissive_strength"
    ],
    "scene" : 0,
    "scenes" : [
        {
            "name" : "Scene",
            "nodes" : [
                30
            ]
        }
    ],
    "nodes" : [
        {
            "mesh" : 0,
            "name" : "Ears_Black_Matt_0"
        },
        {
            "children" : [
                0
            ],
            "name" : "Ears",
            "translation" : [
                0,
                0,
                2.9672508239746094
            ]
        },
        {
            "mesh" : 1,
            "name" : "Eyes_Blue_Light_0",
            "translation" : [
                0,
                0,
                -0.00732421875
            ]
        },
        {
            "children" : [
                2
            ],
            "name" : "Eyes",
            "scale" : [
                1,
                1,
                9.999999960041972e-13
            ],
            "translation" : [
                0,
                -0.43066951632499695,
                0.07583832740783691
            ]
        },
        {
            "children" : [
                3
            ],
            "name" : "Empty",
            "translation" : [
                0,
                -0.0604090578854084,
                2.785975933074951
            ]
        },
        {
            "mesh" : 2,
            "name" : "hANDS_White_Glossy_0"
        },
        {
            "children" : [
                5
            ],
            "name" : "hANDS",
            "translation" : [
                -0.7231054902076721,
                0,
                -1.9633774757385254
            ]
        },
        {
            "children" : [
                6
            ],
            "name" : "Hand origin",
            "translation" : [
                0.7231055498123169,
                0,
                2.0145535469055176
            ]
        },
        {
            "mesh" : 3,
            "name" : "hANDS.002_White_Glossy_0"
        },
        {
            "children" : [
                8
            ],
            "name" : "hANDS.002",
            "translation" : [
                -0.7231055498123169,
                0,
                -1.9633774757385254
            ]
        },
        {
            "children" : [
                9
            ],
            "name" : "Hand origin.002",
            "rotation" : [
                0,
                0,
                -1,
                7.549790126404332e-08
            ],
            "translation" : [
                -0.7231060266494751,
                0,
                2.0145535469055176
            ]
        },
        {
            "mesh" : 4,
            "name" : "Mouth_Blue_Light_0"
        },
        {
            "children" : [
                11
            ],
            "name" : "Mouth",
            "translation" : [
                0,
                -0.5037263035774231,
                2.5729856491088867
            ]
        },
        {
            "mesh" : 5,
            "name" : "Robot_Black_Matt_0"
        },
        {
            "mesh" : 6,
            "name" : "Robot_Blue_Light_0"
        },
        {
            "mesh" : 7,
            "name" : "Robot_White_Glossy_0"
        },
        {
            "children" : [
                13,
                14,
                15
            ],
            "name" : "Robot",
            "translation" : [
                0,
                0,
                0.0511760339140892
            ]
        },
        {
            "mesh" : 8,
            "name" : "Wave_Blue_Light_0"
        },
        {
            "children" : [
                17
            ],
            "name" : "Wave",
            "translation" : [
                0,
                0,
                1
            ]
        },
        {
            "mesh" : 9,
            "name" : "Wave.001_Blue_Light_0"
        },
        {
            "children" : [
                19
            ],
            "name" : "Wave.001",
            "scale" : [
                1,
                1,
                0.8339415192604065
            ],
            "translation" : [
                0,
                0,
                0.818996250629425
            ]
        },
        {
            "mesh" : 10,
            "name" : "Wave.002_Blue_Light_0"
        },
        {
            "children" : [
                21
            ],
            "name" : "Wave.002",
            "scale" : [
                1,
                1,
                0.47414806485176086
            ],
            "translation" : [
                0,
                0,
                0.42682141065597534
            ]
        },
        {
            "mesh" : 11,
            "name" : "Wave.003_Blue_Light_0"
        },
        {
            "children" : [
                23
            ],
            "name" : "Wave.003",
            "scale" : [
                1,
                1,
                0.12819302082061768
            ],
            "translation" : [
                0,
                0,
                0.04973030090332031
            ]
        },
        {
            "name" : "Waves",
            "scale" : [
                1,
                1,
                0.7468854784965515
            ],
            "translation" : [
                0,
                0,
                1
            ]
        },
        {
            "children" : [
                1,
                4,
                7,
                10,
                12,
                16,
                18,
                20,
                22,
                24,
                25
            ],
            "name" : "Robot Origin",
            "rotation" : [
                -0.70710688829422,
                0,
                0,
                0.7071066498756409
            ],
            "scale" : [
                100,
                99.99998474121094,
                99.99998474121094
            ],
            "translation" : [
                0,
                0.6147828102111816,
                0
            ]
        },
        {
            "children" : [
                26
            ],
            "name" : "RootNode"
        },
        {
            "children" : [
                27
            ],
            "name" : "Object_2"
        },
        {
            "children" : [
                28
            ],
            "name" : "a45b6f53b9cc462a82863bb5898bf730.fbx",
            "rotation" : [
                0.70710688829422,
                0,
                0,
                0.7071066498756409
            ],
            "scale" : [
                0.009999999776482582,
                0.010000000707805157,
                0.010000000707805157
            ]
        },
        {
            "children" : [
                29
            ],
            "name" : "Sketchfab_model",
            "scale" : [
                0.24550867080688477,
                0.24550867080688477,
                0.24550867080688477
            ]
        }
    ],
    "animations" : [
        {
            "channels" : [
                {
                    "sampler" : 0,
                    "target" : {
                        "node" : 30,
                        "path" : "rotation"
                    }
                }
            ],
            "name" : "Scene_Ears",
            "samplers" : [
                {
                    "input" : 44,
                    "interpolation" : "LINEAR",
                    "output" : 45
                }
            ]
        },
        {
            "channels" : [
                {
                    "sampler" : 0,
                    "target" : {
                        "node" : 26,
                        "path" : "translation"
                    }
                },
                {
                    "sampler" : 1,
                    "target" : {
                        "node" : 4,
                        "path" : "rotation"
                    }
                },
                {
                    "sampler" : 2,
                    "target" : {
                        "node" : 3,
                        "path" : "scale"
                    }
                },
                {
                    "sampler" : 3,
                    "target" : {
                        "node" : 3,
                        "path" : "rotation"
                    }
                },
                {
                    "sampler" : 4,
                    "target" : {
                        "node" : 7,
                        "path" : "rotation"
                    }
                },
                {
                    "sampler" : 5,
                    "target" : {
                        "node" : 10,
                        "path" : "rotation"
                    }
                },
                {
                    "sampler" : 6,
                    "target" : {
                        "node" : 12,
                        "path" : "scale"
                    }
                },
                {
                    "sampler" : 7,
                    "target" : {
                        "node" : 18,
                        "path" : "translation"
                    }
                },
                {
                    "sampler" : 8,
                    "target" : {
                        "node" : 18,
                        "path" : "scale"
                    }
                },
                {
                    "sampler" : 9,
                    "target" : {
                        "node" : 20,
                        "path" : "translation"
                    }
                },
                {
                    "sampler" : 10,
                    "target" : {
                        "node" : 20,
                        "path" : "scale"
                    }
                },
                {
                    "sampler" : 11,
                    "target" : {
                        "node" : 22,
                        "path" : "translation"
                    }
                },
                {
                    "sampler" : 12,
                    "target" : {
                        "node" : 22,
                        "path" : "scale"
                    }
                },
                {
                    "sampler" : 13,
                    "target" : {
                        "node" : 24,
                        "path" : "translation"
                    }
                },
                {
                    "sampler" : 14,
                    "target" : {
                        "node" : 24,
                        "path" : "scale"
                    }
                }
            ],
            "name" : "Scene",
            "samplers" : [
                {
                    "input" : 44,
                    "interpolation" : "LINEAR",
                    "output" : 46
                },
                {
                    "input" : 44,
                    "interpolation" : "LINEAR",
                    "output" : 47
                },
                {
                    "input" : 44,
                    "interpolation" : "LINEAR",
                    "output" : 48
                },
                {
                    "input" : 44,
                    "interpolation" : "LINEAR",
                    "output" : 49
                },
                {
                    "input" : 44,
                    "interpolation" : "LINEAR",
                    "output" : 50
                },
                {
                    "input" : 44,
                    "interpolation" : "LINEAR",
                    "output" : 51
                },
                {
                    "input" : 44,
                    "interpolation" : "LINEAR",
                    "output" : 52
                },
                {
                    "input" : 44,
                    "interpolation" : "LINEAR",
                    "output" : 53
                },
                {
                    "input" : 44,
                    "interpolation" : "LINEAR",
                    "output" : 54
                },
                {
                    "input" : 44,
                    "interpolation" : "LINEAR",
                    "output" : 55
                },
                {
                    "input" : 44,
                    "interpolation" : "LINEAR",
                    "output" : 56
                },
                {
                    "input" : 44,
                    "interpolation" : "LINEAR",
                    "output" : 57
                },
                {
                    "input" : 44,
                    "interpolation" : "LINEAR",
                    "output" : 58
                },
                {
                    "input" : 44,
                    "interpolation" : "LINEAR",
                    "output" : 59
                },
                {
                    "input" : 44,
                    "interpolation" : "LINEAR",
                    "output" : 60
                }
            ]
        },
        {
            "channels" : [
                {
                    "sampler" : 0,
                    "target" : {
                        "node" : 1,
                        "path" : "rotation"
                    }
                }
            ],
            "name" : "Scene_Ears",
            "samplers" : [
                {
                    "input" : 44,
                    "interpolation" : "LINEAR",
                    "output" : 61
                }
            ]
        }
    ],
    "materials" : [
        {
            "doubleSided" : true,
            "extensions" : {
                "KHR_materials_clearcoat" : {
                    "clearcoatFactor" : 0.05942875146865845,
                    "clearcoatRoughnessFactor" : 0.03999999910593033
                }
            },
            "name" : "Black_Matt",
            "pbrMetallicRoughness" : {
                "baseColorFactor" : [
                    0,
                    0,
                    0,
                    1
                ],
                "metallicFactor" : 0,
                "roughnessFactor" : 0.6628591418266296
            }
        },
        {
            "doubleSided" : true,
            "emissiveFactor" : [
                0.05714287430580148,
                0.34353624517416587,
                1
            ],
            "extensions" : {
                "KHR_materials_emissive_strength" : {
                    "emissiveStrength" : 8.00000011920929
                }
            },
            "name" : "Blue_Light",
            "pbrMetallicRoughness" : {
                "baseColorFactor" : [
                    0,
                    0.13227300345897675,
                    0.800000011920929,
                    1
                ],
                "metallicFactor" : 0,
                "roughnessFactor" : 0.9659308791160583
            }
        },
        {
            "doubleSided" : true,
            "extensions" : {
                "KHR_materials_clearcoat" : {
                    "clearcoatFactor" : 1,
                    "clearcoatRoughnessFactor" : 0.03999999910593033
                }
            },
            "name" : "White_Glossy",
            "pbrMetallicRoughness" : {
                "baseColorFactor" : [
                    0.800000011920929,
                    0.800000011920929,
                    0.800000011920929,
                    1
                ],
                "metallicFactor" : 0,
                "roughnessFactor" : 0.7546014189720154
            }
        }
    ],
    "meshes" : [
        {
            "name" : "Ears_Black_Matt_0",
            "primitives" : [
                {
                    "attributes" : {
                        "POSITION" : 0,
                        "TEXCOORD_0" : 1,
                        "NORMAL" : 2
                    },
                    "indices" : 3,
                    "material" : 0
                }
            ]
        },
        {
            "name" : "Eyes_Blue_Light_0",
            "primitives" : [
                {
                    "attributes" : {
                        "POSITION" : 4,
                        "TEXCOORD_0" : 5,
                        "NORMAL" : 6
                    },
                    "indices" : 7,
                    "material" : 1
                }
            ]
        },
        {
            "name" : "hANDS_White_Glossy_0",
            "primitives" : [
                {
                    "attributes" : {
                        "POSITION" : 8,
                        "TEXCOORD_0" : 9,
                        "NORMAL" : 10
                    },
                    "indices" : 11,
                    "material" : 2
                }
            ]
        },
        {
            "name" : "hANDS.002_White_Glossy_0",
            "primitives" : [
                {
                    "attributes" : {
                        "POSITION" : 12,
                        "TEXCOORD_0" : 13,
                        "NORMAL" : 14
                    },
                    "indices" : 11,
                    "material" : 2
                }
            ]
        },
        {
            "name" : "Mouth_Blue_Light_0",
            "primitives" : [
                {
                    "attributes" : {
                        "POSITION" : 15,
                        "TEXCOORD_0" : 16,
                        "NORMAL" : 17
                    },
                    "indices" : 18,
                    "material" : 1
                }
            ]
        },
        {
            "name" : "Robot_Black_Matt_0",
            "primitives" : [
                {
                    "attributes" : {
                        "POSITION" : 19,
                        "TEXCOORD_0" : 20,
                        "NORMAL" : 21
                    },
                    "indices" : 22,
                    "material" : 0
                }
            ]
        },
        {
            "name" : "Robot_Blue_Light_0",
            "primitives" : [
                {
                    "attributes" : {
                        "POSITION" : 23,
                        "TEXCOORD_0" : 24,
                        "NORMAL" : 25
                    },
                    "indices" : 26,
                    "material" : 1
                }
            ]
        },
        {
            "name" : "Robot_White_Glossy_0",
            "primitives" : [
                {
                    "attributes" : {
                        "POSITION" : 27,
                        "TEXCOORD_0" : 28,
                        "NORMAL" : 29
                    },
                    "indices" : 30,
                    "material" : 2
                }
            ]
        },
        {
            "name" : "Wave_Blue_Light_0",
            "primitives" : [
                {
                    "attributes" : {
                        "POSITION" : 31,
                        "TEXCOORD_0" : 32,
                        "NORMAL" : 33
                    },
                    "indices" : 34,
                    "material" : 1
                }
            ]
        },
        {
            "name" : "Wave.001_Blue_Light_0",
            "primitives" : [
                {
                    "attributes" : {
                        "POSITION" : 35,
                        "TEXCOORD_0" : 36,
                        "NORMAL" : 37
                    },
                    "indices" : 34,
                    "material" : 1
                }
            ]
        },
        {
            "name" : "Wave.002_Blue_Light_0",
            "primitives" : [
                {
                    "attributes" : {
                        "POSITION" : 38,
                        "TEXCOORD_0" : 39,
                        "NORMAL" : 40
                    },
                    "indices" : 34,
                    "material" : 1
                }
            ]
        },
        {
            "name" : "Wave.003_Blue_Light_0",
            "primitives" : [
                {
                    "attributes" : {
                        "POSITION" : 41,
                        "TEXCOORD_0" : 42,
                        "NORMAL" : 43
                    },
                    "indices" : 34,
                    "material" : 1
                }
            ]
        }
    ],
    "accessors" : [
        {
            "bufferView" : 0,
            "componentType" : 5126,
            "count" : 222,
            "max" : [
                0.8916534781455994,
                0.13439126312732697,
                0.39193567633628845
            ],
            "min" : [
                -0.8916535377502441,
                -0.079917311668396,
                0.034369710832834244
            ],
            "type" : "VEC3"
        },
        {
            "bufferView" : 1,
            "componentType" : 5126,
            "count" : 222,
            "type" : "VEC2"
        },
        {
            "bufferView" : 2,
            "componentType" : 5126,
            "count" : 222,
            "type" : "VEC3"
        },
        {
            "bufferView" : 3,
            "componentType" : 5123,
            "count" : 1248,
            "type" : "SCALAR"
        },
        {
            "bufferView" : 4,
            "componentType" : 5126,
            "count" : 226,
            "max" : [
                0.4344252645969391,
                0.07769901305437088,
                0.1364610195159912
            ],
            "min" : [
                -0.4344252943992615,
                -0.02757709100842476,
                -0.14356867969036102
            ],
            "type" : "VEC3"
        },
        {
            "bufferView" : 5,
            "componentType" : 5126,
            "count" : 226,
            "type" : "VEC2"
        },
        {
            "bufferView" : 6,
            "componentType" : 5126,
            "count" : 226,
            "type" : "VEC3"
        },
        {
            "bufferView" : 7,
            "componentType" : 5123,
            "count" : 1152,
            "type" : "SCALAR"
        },
        {
            "bufferView" : 8,
            "componentType" : 5126,
            "count" : 146,
            "max" : [
                1.0365428924560547,
                0.25467362999916077,
                1.9077692031860352
            ],
            "min" : [
                0.7445789575576782,
                -0.25467365980148315,
                0.9224045276641846
            ],
            "type" : "VEC3"
        },
        {
            "bufferView" : 9,
            "componentType" : 5126,
            "count" : 146,
            "type" : "VEC2"
        },
        {
            "bufferView" : 10,
            "componentType" : 5126,
            "count" : 146,
            "type" : "VEC3"
        },
        {
            "bufferView" : 11,
            "componentType" : 5123,
            "count" : 768,
            "type" : "SCALAR"
        },
        {
            "bufferView" : 12,
            "componentType" : 5126,
            "count" : 146,
            "max" : [
                1.0365428924560547,
                0.25467362999916077,
                1.9077692031860352
            ],
            "min" : [
                0.7445789575576782,
                -0.25467365980148315,
                0.9224045276641846
            ],
            "type" : "VEC3"
        },
        {
            "bufferView" : 13,
            "componentType" : 5126,
            "count" : 146,
            "type" : "VEC2"
        },
        {
            "bufferView" : 14,
            "componentType" : 5126,
            "count" : 146,
            "type" : "VEC3"
        },
        {
            "bufferView" : 15,
            "componentType" : 5126,
            "count" : 24,
            "max" : [
                0.06056470051407814,
                0.0023642778396606445,
                0.012537956237792969
            ],
            "min" : [
                -0.06056470051407814,
                -0.0021029114723205566,
                -0.012574911117553711
            ],
            "type" : "VEC3"
        },
        {
            "bufferView" : 16,
            "componentType" : 5126,
            "count" : 24,
            "type" : "VEC2"
        },
        {
            "bufferView" : 17,
            "componentType" : 5126,
            "count" : 24,
            "type" : "VEC3"
        },
        {
            "bufferView" : 18,
            "componentType" : 5123,
            "count" : 48,
            "type" : "SCALAR"
        },
        {
            "bufferView" : 19,
            "componentType" : 5126,
            "count" : 81,
            "max" : [
                0.5462413430213928,
                -0.38471519947052,
                3.133718729019165
            ],
            "min" : [
                -0.5462413430213928,
                -0.5087734460830688,
                2.364046573638916
            ],
            "type" : "VEC3"
        },
        {
            "bufferView" : 20,
            "componentType" : 5126,
            "count" : 81,
            "type" : "VEC2"
        },
        {
            "bufferView" : 21,
            "componentType" : 5126,
            "count" : 81,
            "type" : "VEC3"
        },
        {
            "bufferView" : 22,
            "componentType" : 5123,
            "count" : 384,
            "type" : "SCALAR"
        },
        {
            "bufferView" : 23,
            "componentType" : 5126,
            "count" : 388,
            "max" : [
                0.7705879807472229,
                0.3686032295227051,
                3.3329145908355713
            ],
            "min" : [
                -0.7705879211425781,
                -0.6304577589035034,
                0.5542609691619873
            ],
            "type" : "VEC3"
        },
        {
            "bufferView" : 24,
            "componentType" : 5126,
            "count" : 388,
            "type" : "VEC2"
        },
        {
            "bufferView" : 25,
            "componentType" : 5126,
            "count" : 388,
            "type" : "VEC3"
        },
        {
            "bufferView" : 26,
            "componentType" : 5123,
            "count" : 1488,
            "type" : "SCALAR"
        },
        {
            "bufferView" : 27,
            "componentType" : 5126,
            "count" : 2094,
            "max" : [
                0.9878982901573181,
                0.6495059132575989,
                3.4140801429748535
            ],
            "min" : [
                -0.9878983497619629,
                -0.6431878209114075,
                0.4019245207309723
            ],
            "type" : "VEC3"
        },
        {
            "bufferView" : 28,
            "componentType" : 5126,
            "count" : 2094,
            "type" : "VEC2"
        },
        {
            "bufferView" : 29,
            "componentType" : 5126,
            "count" : 2094,
            "type" : "VEC3"
        },
        {
            "bufferView" : 30,
            "componentType" : 5123,
            "count" : 10698,
            "type" : "SCALAR"
        },
        {
            "bufferView" : 31,
            "componentType" : 5126,
            "count" : 68,
            "max" : [
                0.5024517774581909,
                0.3701712489128113,
                0.030932456254959106
            ],
            "min" : [
                -0.5024517774581909,
                -0.3701712191104889,
                -0.030932486057281494
            ],
            "type" : "VEC3"
        },
        {
            "bufferView" : 32,
            "componentType" : 5126,
            "count" : 68,
            "type" : "VEC2"
        },
        {
            "bufferView" : 33,
            "componentType" : 5126,
            "count" : 68,
            "type" : "VEC3"
        },
        {
            "bufferView" : 34,
            "componentType" : 5123,
            "count" : 192,
            "type" : "SCALAR"
        },
        {
            "bufferView" : 35,
            "componentType" : 5126,
            "count" : 68,
            "max" : [
                0.5024517774581909,
                0.3701712489128113,
                0.030932456254959106
            ],
            "min" : [
                -0.5024517774581909,
                -0.3701712191104889,
                -0.030932486057281494
            ],
            "type" : "VEC3"
        },
        {
            "bufferView" : 36,
            "componentType" : 5126,
            "count" : 68,
            "type" : "VEC2"
        },
        {
            "bufferView" : 37,
            "componentType" : 5126,
            "count" : 68,
            "type" : "VEC3"
        },
        {
            "bufferView" : 38,
            "componentType" : 5126,
            "count" : 68,
            "max" : [
                0.5024517774581909,
                0.3701712489128113,
                0.030932456254959106
            ],
            "min" : [
                -0.5024517774581909,
                -0.3701712191104889,
                -0.030932486057281494
            ],
            "type" : "VEC3"
        },
        {
            "bufferView" : 39,
            "componentType" : 5126,
            "count" : 68,
            "type" : "VEC2"
        },
        {
            "bufferView" : 40,
            "componentType" : 5126,
            "count" : 68,
            "type" : "VEC3"
        },
        {
            "bufferView" : 41,
            "componentType" : 5126,
            "count" : 68,
            "max" : [
                0.5024517774581909,
                0.3701712489128113,
                0.030932456254959106
            ],
            "min" : [
                -0.5024517774581909,
                -0.3701712191104889,
                -0.030932486057281494
            ],
            "type" : "VEC3"
        },
        {
            "bufferView" : 42,
            "componentType" : 5126,
            "count" : 68,
            "type" : "VEC2"
        },
        {
            "bufferView" : 43,
            "componentType" : 5126,
            "count" : 68,
            "type" : "VEC3"
        },
        {
            "bufferView" : 44,
            "componentType" : 5126,
            "count" : 240,
            "max" : [
                10
            ],
            "min" : [
                0.041666666666666664
            ],
            "type" : "SCALAR"
        },
        {
            "bufferView" : 45,
            "componentType" : 5126,
            "count" : 240,
            "type" : "VEC4"
        },
        {
            "bufferView" : 46,
            "componentType" : 5126,
            "count" : 240,
            "type" : "VEC3"
        },
        {
            "bufferView" : 47,
            "componentType" : 5126,
            "count" : 240,
            "type" : "VEC4"
        },
        {
            "bufferView" : 48,
            "componentType" : 5126,
            "count" : 240,
            "type" : "VEC3"
        },
        {
            "bufferView" : 49,
            "componentType" : 5126,
            "count" : 240,
            "type" : "VEC4"
        },
        {
            "bufferView" : 50,
            "componentType" : 5126,
            "count" : 240,
            "type" : "VEC4"
        },
        {
            "bufferView" : 51,
            "componentType" : 5126,
            "count" : 240,
            "type" : "VEC4"
        },
        {
            "bufferView" : 52,
            "componentType" : 5126,
            "count" : 240,
            "type" : "VEC3"
        },
        {
            "bufferView" : 53,
            "componentType" : 5126,
            "count" : 240,
            "type" : "VEC3"
        },
        {
            "bufferView" : 54,
            "componentType" : 5126,
            "count" : 240,
            "type" : "VEC3"
        },
        {
            "bufferView" : 55,
            "componentType" : 5126,
            "count" : 240,
            "type" : "VEC3"
        },
        {
            "bufferView" : 56,
            "componentType" : 5126,
            "count" : 240,
            "type" : "VEC3"
        },
        {
            "bufferView" : 57,
            "componentType" : 5126,
            "count" : 240,
            "type" : "VEC3"
        },
        {
            "bufferView" : 58,
            "componentType" : 5126,
            "count" : 240,
            "type" : "VEC3"
        },
        {
            "bufferView" : 59,
            "componentType" : 5126,
            "count" : 240,
            "type" : "VEC3"
        },
        {
            "bufferView" : 60,
            "componentType" : 5126,
            "count" : 240,
            "type" : "VEC3"
        },
        {
            "bufferView" : 61,
            "componentType" : 5126,
            "count" : 240,
            "type" : "VEC4"
        }
    ],
    "bufferViews" : [
        {
            "buffer" : 0,
            "byteLength" : 2664,
            "byteOffset" : 0,
            "target" : 34962
        },
        {
            "buffer" : 0,
            "byteLength" : 1776,
            "byteOffset" : 2664,
            "target" : 34962
        },
        {
            "buffer" : 0,
            "byteLength" : 2664,
            "byteOffset" : 4440,
            "target" : 34962
        },
        {
            "buffer" : 0,
            "byteLength" : 2496,
            "byteOffset" : 7104,
            "target" : 34963
        },
        {
            "buffer" : 0,
            "byteLength" : 2712,
            "byteOffset" : 9600,
            "target" : 34962
        },
        {
            "buffer" : 0,
            "byteLength" : 1808,
            "byteOffset" : 12312,
            "target" : 34962
        },
        {
            "buffer" : 0,
            "byteLength" : 2712,
            "byteOffset" : 14120,
            "target" : 34962
        },
        {
            "buffer" : 0,
            "byteLength" : 2304,
            "byteOffset" : 16832,
            "target" : 34963
        },
        {
            "buffer" : 0,
            "byteLength" : 1752,
            "byteOffset" : 19136,
            "target" : 34962
        },
        {
            "buffer" : 0,
            "byteLength" : 1168,
            "byteOffset" : 20888,
            "target" : 34962
        },
        {
            "buffer" : 0,
            "byteLength" : 1752,
            "byteOffset" : 22056,
            "target" : 34962
        },
        {
            "buffer" : 0,
            "byteLength" : 1536,
            "byteOffset" : 23808,
            "target" : 34963
        },
        {
            "buffer" : 0,
            "byteLength" : 1752,
            "byteOffset" : 25344,
            "target" : 34962
        },
        {
            "buffer" : 0,
            "byteLength" : 1168,
            "byteOffset" : 27096,
            "target" : 34962
        },
        {
            "buffer" : 0,
            "byteLength" : 1752,
            "byteOffset" : 28264,
            "target" : 34962
        },
        {
            "buffer" : 0,
            "byteLength" : 288,
            "byteOffset" : 30016,
            "target" : 34962
        },
        {
            "buffer" : 0,
            "byteLength" : 192,
            "byteOffset" : 30304,
            "target" : 34962
        },
        {
            "buffer" : 0,
            "byteLength" : 288,
            "byteOffset" : 30496,
            "target" : 34962
        },
        {
            "buffer" : 0,
            "byteLength" : 96,
            "byteOffset" : 30784,
            "target" : 34963
        },
        {
            "buffer" : 0,
            "byteLength" : 972,
            "byteOffset" : 30880,
            "target" : 34962
        },
        {
            "buffer" : 0,
            "byteLength" : 648,
            "byteOffset" : 31852,
            "target" : 34962
        },
        {
            "buffer" : 0,
            "byteLength" : 972,
            "byteOffset" : 32500,
            "target" : 34962
        },
        {
            "buffer" : 0,
            "byteLength" : 768,
            "byteOffset" : 33472,
            "target" : 34963
        },
        {
            "buffer" : 0,
            "byteLength" : 4656,
            "byteOffset" : 34240,
            "target" : 34962
        },
        {
            "buffer" : 0,
            "byteLength" : 3104,
            "byteOffset" : 38896,
            "target" : 34962
        },
        {
            "buffer" : 0,
            "byteLength" : 4656,
            "byteOffset" : 42000,
            "target" : 34962
        },
        {
            "buffer" : 0,
            "byteLength" : 2976,
            "byteOffset" : 46656,
            "target" : 34963
        },
        {
            "buffer" : 0,
            "byteLength" : 25128,
            "byteOffset" : 49632,
            "target" : 34962
        },
        {
            "buffer" : 0,
            "byteLength" : 16752,
            "byteOffset" : 74760,
            "target" : 34962
        },
        {
            "buffer" : 0,
            "byteLength" : 25128,
            "byteOffset" : 91512,
            "target" : 34962
        },
        {
            "buffer" : 0,
            "byteLength" : 21396,
            "byteOffset" : 116640,
            "target" : 34963
        },
        {
            "buffer" : 0,
            "byteLength" : 816,
            "byteOffset" : 138036,
            "target" : 34962
        },
        {
            "buffer" : 0,
            "byteLength" : 544,
            "byteOffset" : 138852,
            "target" : 34962
        },
        {
            "buffer" : 0,
            "byteLength" : 816,
            "byteOffset" : 139396,
            "target" : 34962
        },
        {
            "buffer" : 0,
            "byteLength" : 384,
            "byteOffset" : 140212,
            "target" : 34963
        },
        {
            "buffer" : 0,
            "byteLength" : 816,
            "byteOffset" : 140596,
            "target" : 34962
        },
        {
            "buffer" : 0,
            "byteLength" : 544,
            "byteOffset" : 141412,
            "target" : 34962
        },
        {
            "buffer" : 0,
            "byteLength" : 816,
            "byteOffset" : 141956,
            "target" : 34962
        },
        {
            "buffer" : 0,
            "byteLength" : 816,
            "byteOffset" : 142772,
            "target" : 34962
        },
        {
            "buffer" : 0,
            "byteLength" : 544,
            "byteOffset" : 143588,
            "target" : 34962
        },
        {
            "buffer" : 0,
            "byteLength" : 816,
            "byteOffset" : 144132,
            "target" : 34962
        },
        {
            "buffer" : 0,
            "byteLength" : 816,
            "byteOffset" : 144948,
            "target" : 34962
        },
        {
            "buffer" : 0,
            "byteLength" : 544,
            "byteOffset" : 145764,
            "target" : 34962
        },
        {
            "buffer" : 0,
            "byteLength" : 816,
            "byteOffset" : 146308,
            "target" : 34962
        },
        {
            "buffer" : 0,
            "byteLength" : 960,
            "byteOffset" : 147124
        },
        {
            "buffer" : 0,
            "byteLength" : 3840,
            "byteOffset" : 148084
        },
        {
            "buffer" : 0,
            "byteLength" : 2880,
            "byteOffset" : 151924
        },
        {
            "buffer" : 0,
            "byteLength" : 3840,
            "byteOffset" : 154804
        },
        {
            "buffer" : 0,
            "byteLength" : 2880,
            "byteOffset" : 158644
        },
        {
            "buffer" : 0,
            "byteLength" : 3840,
            "byteOffset" : 161524
        },
        {
            "buffer" : 0,
            "byteLength" : 3840,
            "byteOffset" : 165364
        },
        {
            "buffer" : 0,
            "byteLength" : 3840,
            "byteOffset" : 169204
        },
        {
            "buffer" : 0,
            "byteLength" : 2880,
            "byteOffset" : 173044
        },
        {
            "buffer" : 0,
            "byteLength" : 2880,
            "byteOffset" : 175924
        },
        {
            "buffer" : 0,
            "byteLength" : 2880,
            "byteOffset" : 178804
        },
        {
            "buffer" : 0,
            "byteLength" : 2880,
            "byteOffset" : 181684
        },
        {
            "buffer" : 0,
            "byteLength" : 2880,
            "byteOffset" : 184564
        },
        {
            "buffer" : 0,
            "byteLength" : 2880,
            "byteOffset" : 187444
        },
        {
            "buffer" : 0,
            "byteLength" : 2880,
            "byteOffset" : 190324
        },
        {
            "buffer" : 0,
            "byteLength" : 2880,
            "byteOffset" : 193204
        },
        {
            "buffer" : 0,
            "byteLength" : 2880,
            "byteOffset" : 196084
        },
        {
            "buffer" : 0,
            "byteLength" : 3840,
            "byteOffset" : 198964
        }
    ],
    "buffers" : [
        {
            "byteLength" : 202804,
            "uri" : "scene.bin"
        }
    ]
}
