{
    "asset" : {
        "generator" : "Khronos glTF Blender I/O v3.4.50",
        "version" : "2.0"
    },
    "extensionsUsed" : [
        "KHR_materials_unlit"
    ],
    "scene" : 0,
    "scenes" : [
        {
            "name" : "Scene",
            "nodes" : [
                31
            ]
        }
    ],
    "nodes" : [
        {
            "name" : "BG"
        },
        {
            "name" : "Dust_Ctrl",
            "rotation" : [
                -0.70710688829422,
                0,
                0,
                0.7071066498756409
            ],
            "scale" : [
                0.7947258353233337,
                0.7947258949279785,
                0.7947258949279785
            ],
            "translation" : [
                0.6681513786315918,
                0,
                0.5348496437072754
            ]
        },
        {
            "name" : "Object_32",
            "translation" : [
                0,
                0,
                -5.0012287829304114e-05
            ]
        },
        {
            "children" : [
                2
            ],
            "name" : "Floor",
            "rotation" : [
                -0.70710688829422,
                0,
                0,
                0.7071066498756409
            ],
            "scale" : [
                2.2988853454589844,
                2.2988858222961426,
                2.2988858222961426
            ]
        },
        {
            "mesh" : 0,
            "name" : "Sphere002_07 - Default_0"
        },
        {
            "children" : [
                4
            ],
            "name" : "Sphere002",
            "rotation" : [
                0.3535533547401428,
                -0.1464465856552124,
                0.3535533845424652,
                0.8535534143447876
            ],
            "translation" : [
                0,
                5.442705514724366e-06,
                0
            ]
        },
        {
            "children" : [
                5
            ],
            "name" : "Body_Rot_Ctrl",
            "scale" : [
                1.503099799156189,
                1.503100037574768,
                1.5030996799468994
            ],
            "translation" : [
                0,
                0,
                24.123456954956055
            ]
        },
        {
            "mesh" : 1,
            "name" : "Capsule003_07 - Default_0.001"
        },
        {
            "children" : [
                7
            ],
            "name" : "Capsule003.001",
            "translation" : [
                -0.30550268292427063,
                3.154275417327881,
                5.17110013961792
            ]
        },
        {
            "mesh" : 2,
            "name" : "Capsule004_07 - Default_0",
            "translation" : [
                0,
                0,
                2.0600855350494385e-06
            ]
        },
        {
            "children" : [
                9
            ],
            "name" : "Capsule004",
            "translation" : [
                0.905194878578186,
                3.154275417327881,
                5.171100616455078
            ]
        },
        {
            "mesh" : 3,
            "name" : "Capsule004_07 - Default_0.001",
            "translation" : [
                0,
                2.22143717110157e-06,
                0
            ]
        },
        {
            "children" : [
                11
            ],
            "name" : "Capsule004.001",
            "rotation" : [
                0.5060775876045227,
                -4.717815318144858e-05,
                -8.040191460167989e-05,
                0.8624879717826843
            ],
            "scale" : [
                1,
                1,
                0.6349507570266724
            ],
            "translation" : [
                0.0007842425256967545,
                -3.2439332008361816,
                3.8358538150787354
            ]
        },
        {
            "mesh" : 4,
            "name" : "Capsule005_07 - Default_0",
            "translation" : [
                0,
                1.3828277587890625e-05,
                -4.76837158203125e-06
            ]
        },
        {
            "children" : [
                13
            ],
            "name" : "Capsule005",
            "rotation" : [
                0.5893080234527588,
                0.15669523179531097,
                0.20366448163986206,
                0.7659526467323303
            ],
            "scale" : [
                0.3173186480998993,
                0.3173189163208008,
                0.18240077793598175
            ],
            "translation" : [
                2.817640781402588,
                -4.88531494140625,
                3.523824453353882
            ]
        },
        {
            "mesh" : 5,
            "name" : "Cylinder004_07 - Default_0",
            "translation" : [
                0,
                0,
                -2.761255018413067e-06
            ]
        },
        {
            "children" : [
                15
            ],
            "name" : "Cylinder004",
            "rotation" : [
                0.5060775876045227,
                -4.717794945463538e-05,
                -8.040214743232355e-05,
                0.8624879717826843
            ],
            "translation" : [
                0.0001361197791993618,
                -4.539275646209717,
                4.562492847442627
            ]
        },
        {
            "mesh" : 6,
            "name" : "Cylinder005_07 - Default_0"
        },
        {
            "children" : [
                17
            ],
            "name" : "Cylinder005",
            "rotation" : [
                0.5893080234527588,
                0.1566952019929886,
                0.20366430282592773,
                0.7659527063369751
            ],
            "scale" : [
                1.261141300201416,
                1.261141300201416,
                0.8378720283508301
            ],
            "translation" : [
                2.6518149375915527,
                -4.589969635009766,
                3.434004545211792
            ]
        },
        {
            "mesh" : 7,
            "name" : "Capsule003_07 - Default_0"
        },
        {
            "children" : [
                19
            ],
            "name" : "Object_12",
            "translation" : [
                0,
                0,
                -7.205594062805176
            ]
        },
        {
            "children" : [
                8,
                10,
                12,
                14,
                16,
                18,
                20
            ],
            "name" : "Capsule003",
            "rotation" : [
                0,
                0,
                -0.7124351859092712,
                0.7017379403114319
            ],
            "scale" : [
                4.547319412231445,
                4.547319412231445,
                4.547318935394287
            ],
            "translation" : [
                -0.7134764790534973,
                0.01079396903514862,
                -38.04157257080078
            ]
        },
        {
            "children" : [
                21
            ],
            "name" : "Head_Pos_Ctrl",
            "rotation" : [
                0,
                0,
                0.0075642140582203865,
                0.9999713897705078
            ],
            "scale" : [
                0.5631082057952881,
                0.5631080865859985,
                0.5631082057952881
            ],
            "translation" : [
                0.4018137454986572,
                0,
                45.05609130859375
            ]
        },
        {
            "children" : [
                22
            ],
            "name" : "Head_Rot_Ctrl",
            "rotation" : [
                0.005845306906849146,
                -0.043841104954481125,
                0.0002565157483331859,
                0.9990214705467224
            ],
            "scale" : [
                0.956885814666748,
                0.9568856358528137,
                0.956885814666748
            ],
            "translation" : [
                0,
                0,
                24.85083770751953
            ]
        },
        {
            "children" : [
                6,
                23
            ],
            "name" : "Body_Pos_Ctrl",
            "rotation" : [
                0,
                0,
                -1,
                1.331580676833255e-07
            ],
            "scale" : [
                0.6652917265892029,
                0.6652916669845581,
                0.6652916669845581
            ],
            "translation" : [
                0,
                0.06505993753671646,
                0
            ]
        },
        {
            "name" : "Shadow",
            "scale" : [
                1.2499998807907104,
                1.25,
                1
            ],
            "translation" : [
                3.9237351417541504,
                0,
                0.7879714965820312
            ]
        },
        {
            "children" : [
                25
            ],
            "name" : "Shadow_Ctrl",
            "rotation" : [
                0,
                0,
                -1,
                1.331580676833255e-07
            ],
            "scale" : [
                0.6652917265892029,
                0.6652916669845581,
                0.6652916669845581
            ],
            "translation" : [
                -0.6681517958641052,
                -0.006112620234489441,
                0
            ]
        },
        {
            "children" : [
                24,
                26
            ],
            "name" : "Main_Ctrl",
            "rotation" : [
                0,
                0.7071068286895752,
                0.7071068286895752,
                9.415698798420635e-08
            ],
            "translation" : [
                0,
                0,
                0.006112519185990095
            ]
        },
        {
            "children" : [
                0,
                1,
                3,
                27
            ],
            "name" : "RootNode"
        },
        {
            "children" : [
                28
            ],
            "name" : "Object_2"
        },
        {
            "children" : [
                29
            ],
            "name" : "a8c2a0ad529f4d52a8f6a90a24c3f120.fbx",
            "rotation" : [
                0.70710688829422,
                0,
                0,
                0.7071066498756409
            ]
        },
        {
            "children" : [
                30
            ],
            "name" : "Sketchfab_model",
            "rotation" : [
                -0.70710688829422,
                0,
                0,
                0.7071066498756409
            ],
            "scale" : [
                0.004018775653094053,
                0.004018776118755341,
                0.004018776118755341
            ]
        }
    ],
    "animations" : [
        {
            "channels" : [
                {
                    "sampler" : 0,
                    "target" : {
                        "node" : 1,
                        "path" : "translation"
                    }
                },
                {
                    "sampler" : 1,
                    "target" : {
                        "node" : 1,
                        "path" : "scale"
                    }
                },
                {
                    "sampler" : 2,
                    "target" : {
                        "node" : 1,
                        "path" : "rotation"
                    }
                },
                {
                    "sampler" : 3,
                    "target" : {
                        "node" : 27,
                        "path" : "translation"
                    }
                },
                {
                    "sampler" : 4,
                    "target" : {
                        "node" : 27,
                        "path" : "rotation"
                    }
                },
                {
                    "sampler" : 5,
                    "target" : {
                        "node" : 6,
                        "path" : "translation"
                    }
                },
                {
                    "sampler" : 6,
                    "target" : {
                        "node" : 6,
                        "path" : "rotation"
                    }
                },
                {
                    "sampler" : 7,
                    "target" : {
                        "node" : 23,
                        "path" : "translation"
                    }
                },
                {
                    "sampler" : 8,
                    "target" : {
                        "node" : 23,
                        "path" : "rotation"
                    }
                },
                {
                    "sampler" : 9,
                    "target" : {
                        "node" : 22,
                        "path" : "translation"
                    }
                },
                {
                    "sampler" : 10,
                    "target" : {
                        "node" : 22,
                        "path" : "rotation"
                    }
                },
                {
                    "sampler" : 11,
                    "target" : {
                        "node" : 26,
                        "path" : "translation"
                    }
                },
                {
                    "sampler" : 12,
                    "target" : {
                        "node" : 26,
                        "path" : "rotation"
                    }
                },
                {
                    "sampler" : 13,
                    "target" : {
                        "node" : 25,
                        "path" : "translation"
                    }
                },
                {
                    "sampler" : 14,
                    "target" : {
                        "node" : 25,
                        "path" : "scale"
                    }
                },
                {
                    "sampler" : 15,
                    "target" : {
                        "node" : 25,
                        "path" : "rotation"
                    }
                }
            ],
            "name" : "Rolling",
            "samplers" : [
                {
                    "input" : 32,
                    "interpolation" : "LINEAR",
                    "output" : 33
                },
                {
                    "input" : 32,
                    "interpolation" : "LINEAR",
                    "output" : 34
                },
                {
                    "input" : 32,
                    "interpolation" : "LINEAR",
                    "output" : 35
                },
                {
                    "input" : 32,
                    "interpolation" : "LINEAR",
                    "output" : 36
                },
                {
                    "input" : 37,
                    "interpolation" : "STEP",
                    "output" : 38
                },
                {
                    "input" : 32,
                    "interpolation" : "LINEAR",
                    "output" : 39
                },
                {
                    "input" : 32,
                    "interpolation" : "LINEAR",
                    "output" : 40
                },
                {
                    "input" : 32,
                    "interpolation" : "LINEAR",
                    "output" : 41
                },
                {
                    "input" : 32,
                    "interpolation" : "LINEAR",
                    "output" : 42
                },
                {
                    "input" : 32,
                    "interpolation" : "LINEAR",
                    "output" : 43
                },
                {
                    "input" : 32,
                    "interpolation" : "LINEAR",
                    "output" : 44
                },
                {
                    "input" : 32,
                    "interpolation" : "LINEAR",
                    "output" : 45
                },
                {
                    "input" : 37,
                    "interpolation" : "STEP",
                    "output" : 46
                },
                {
                    "input" : 32,
                    "interpolation" : "LINEAR",
                    "output" : 47
                },
                {
                    "input" : 32,
                    "interpolation" : "LINEAR",
                    "output" : 48
                },
                {
                    "input" : 32,
                    "interpolation" : "LINEAR",
                    "output" : 49
                }
            ]
        },
        {
            "channels" : [
                {
                    "sampler" : 0,
                    "target" : {
                        "node" : 24,
                        "path" : "translation"
                    }
                },
                {
                    "sampler" : 1,
                    "target" : {
                        "node" : 24,
                        "path" : "scale"
                    }
                },
                {
                    "sampler" : 2,
                    "target" : {
                        "node" : 24,
                        "path" : "rotation"
                    }
                }
            ],
            "name" : "Rolling_Body_Pos_Ctrl",
            "samplers" : [
                {
                    "input" : 32,
                    "interpolation" : "LINEAR",
                    "output" : 50
                },
                {
                    "input" : 32,
                    "interpolation" : "LINEAR",
                    "output" : 51
                },
                {
                    "input" : 32,
                    "interpolation" : "LINEAR",
                    "output" : 52
                }
            ]
        },
        {
            "channels" : [
                {
                    "sampler" : 0,
                    "target" : {
                        "node" : 26,
                        "path" : "translation"
                    }
                },
                {
                    "sampler" : 1,
                    "target" : {
                        "node" : 26,
                        "path" : "scale"
                    }
                },
                {
                    "sampler" : 2,
                    "target" : {
                        "node" : 26,
                        "path" : "rotation"
                    }
                }
            ],
            "name" : "bbo_rolling",
            "samplers" : [
                {
                    "input" : 32,
                    "interpolation" : "LINEAR",
                    "output" : 53
                },
                {
                    "input" : 32,
                    "interpolation" : "LINEAR",
                    "output" : 54
                },
                {
                    "input" : 32,
                    "interpolation" : "LINEAR",
                    "output" : 55
                }
            ]
        }
    ],
    "materials" : [
        {
            "doubleSided" : true,
            "extensions" : {
                "KHR_materials_unlit" : {}
            },
            "name" : "07_-_Default",
            "pbrMetallicRoughness" : {
                "baseColorTexture" : {
                    "index" : 0,
                    "texCoord" : 0
                },
                "metallicFactor" : 0,
                "roughnessFactor" : 0.9
            }
        }
    ],
    "meshes" : [
        {
            "name" : "Sphere002_07 - Default_0",
            "primitives" : [
                {
                    "attributes" : {
                        "POSITION" : 0,
                        "TEXCOORD_0" : 1,
                        "NORMAL" : 2
                    },
                    "indices" : 3,
                    "material" : 0
                }
            ]
        },
        {
            "name" : "Capsule003_07 - Default_0.001",
            "primitives" : [
                {
                    "attributes" : {
                        "POSITION" : 4,
                        "TEXCOORD_0" : 5,
                        "NORMAL" : 6
                    },
                    "indices" : 7,
                    "material" : 0
                }
            ]
        },
        {
            "name" : "Capsule004_07 - Default_0",
            "primitives" : [
                {
                    "attributes" : {
                        "POSITION" : 8,
                        "TEXCOORD_0" : 9,
                        "NORMAL" : 10
                    },
                    "indices" : 11,
                    "material" : 0
                }
            ]
        },
        {
            "name" : "Capsule004_07 - Default_0.001",
            "primitives" : [
                {
                    "attributes" : {
                        "POSITION" : 12,
                        "TEXCOORD_0" : 13,
                        "NORMAL" : 14
                    },
                    "indices" : 15,
                    "material" : 0
                }
            ]
        },
        {
            "name" : "Capsule005_07 - Default_0",
            "primitives" : [
                {
                    "attributes" : {
                        "POSITION" : 16,
                        "TEXCOORD_0" : 17,
                        "NORMAL" : 18
                    },
                    "indices" : 19,
                    "material" : 0
                }
            ]
        },
        {
            "name" : "Cylinder004_07 - Default_0",
            "primitives" : [
                {
                    "attributes" : {
                        "POSITION" : 20,
                        "TEXCOORD_0" : 21,
                        "NORMAL" : 22
                    },
                    "indices" : 23,
                    "material" : 0
                }
            ]
        },
        {
            "name" : "Cylinder005_07 - Default_0",
            "primitives" : [
                {
                    "attributes" : {
                        "POSITION" : 24,
                        "TEXCOORD_0" : 25,
                        "NORMAL" : 26
                    },
                    "indices" : 27,
                    "material" : 0
                }
            ]
        },
        {
            "name" : "Capsule003_07 - Default_0",
            "primitives" : [
                {
                    "attributes" : {
                        "POSITION" : 28,
                        "TEXCOORD_0" : 29,
                        "NORMAL" : 30
                    },
                    "indices" : 31,
                    "material" : 0
                }
            ]
        }
    ],
    "textures" : [
        {
            "sampler" : 0,
            "source" : 0
        }
    ],
    "images" : [
        {
            "mimeType" : "image/jpeg",
            "name" : "07_-_Default_baseColor",
            "uri" : "07_-_Default_baseColor.jpg"
        }
    ],
    "accessors" : [
        {
            "bufferView" : 0,
            "componentType" : 5126,
            "count" : 582,
            "max" : [
                16.322216033935547,
                16.322216033935547,
                16.322216033935547
            ],
            "min" : [
                -16.322216033935547,
                -16.322216033935547,
                -16.322216033935547
            ],
            "type" : "VEC3"
        },
        {
            "bufferView" : 1,
            "componentType" : 5126,
            "count" : 582,
            "type" : "VEC2"
        },
        {
            "bufferView" : 2,
            "componentType" : 5126,
            "count" : 582,
            "type" : "VEC3"
        },
        {
            "bufferView" : 3,
            "componentType" : 5123,
            "count" : 2880,
            "type" : "SCALAR"
        },
        {
            "bufferView" : 4,
            "componentType" : 5126,
            "count" : 84,
            "max" : [
                0.10000000149011612,
                0.10000000149011612,
                4.166320323944092
            ],
            "min" : [
                -0.10000000149011612,
                -0.10000000149011612,
                0
            ],
            "type" : "VEC3"
        },
        {
            "bufferView" : 5,
            "componentType" : 5126,
            "count" : 84,
            "type" : "VEC2"
        },
        {
            "bufferView" : 6,
            "componentType" : 5126,
            "count" : 84,
            "type" : "VEC3"
        },
        {
            "bufferView" : 7,
            "componentType" : 5123,
            "count" : 384,
            "type" : "SCALAR"
        },
        {
            "bufferView" : 8,
            "componentType" : 5126,
            "count" : 166,
            "max" : [
                0.10000000149011612,
                0.10000000149011612,
                6.61320686340332
            ],
            "min" : [
                -0.10000000149011612,
                -0.10000011324882507,
                0
            ],
            "type" : "VEC3"
        },
        {
            "bufferView" : 9,
            "componentType" : 5126,
            "count" : 166,
            "type" : "VEC2"
        },
        {
            "bufferView" : 10,
            "componentType" : 5126,
            "count" : 166,
            "type" : "VEC3"
        },
        {
            "bufferView" : 11,
            "componentType" : 5123,
            "count" : 576,
            "type" : "SCALAR"
        },
        {
            "bufferView" : 12,
            "componentType" : 5126,
            "count" : 163,
            "max" : [
                1.3338574171066284,
                1.3338574171066284,
                4.498286724090576
            ],
            "min" : [
                -1.3338574171066284,
                -1.3338574171066284,
                1.333857536315918
            ],
            "type" : "VEC3"
        },
        {
            "bufferView" : 13,
            "componentType" : 5126,
            "count" : 163,
            "type" : "VEC2"
        },
        {
            "bufferView" : 14,
            "componentType" : 5126,
            "count" : 163,
            "type" : "VEC3"
        },
        {
            "bufferView" : 15,
            "componentType" : 5123,
            "count" : 816,
            "type" : "SCALAR"
        },
        {
            "bufferView" : 16,
            "componentType" : 5126,
            "count" : 350,
            "max" : [
                2.4422478675842285,
                2.4422426223754883,
                4.480071067810059
            ],
            "min" : [
                -2.442248821258545,
                -2.4422523975372314,
                -1.3226943016052246
            ],
            "type" : "VEC3"
        },
        {
            "bufferView" : 17,
            "componentType" : 5126,
            "count" : 350,
            "type" : "VEC2"
        },
        {
            "bufferView" : 18,
            "componentType" : 5126,
            "count" : 350,
            "type" : "VEC3"
        },
        {
            "bufferView" : 19,
            "componentType" : 5123,
            "count" : 1392,
            "type" : "SCALAR"
        },
        {
            "bufferView" : 20,
            "componentType" : 5126,
            "count" : 343,
            "max" : [
                1.619255781173706,
                1.6074492931365967,
                0.9071348905563354
            ],
            "min" : [
                -1.6192551851272583,
                -1.6074494123458862,
                0.19711104035377502
            ],
            "type" : "VEC3"
        },
        {
            "bufferView" : 21,
            "componentType" : 5126,
            "count" : 343,
            "type" : "VEC2"
        },
        {
            "bufferView" : 22,
            "componentType" : 5126,
            "count" : 343,
            "type" : "VEC3"
        },
        {
            "bufferView" : 23,
            "componentType" : 5123,
            "count" : 780,
            "type" : "SCALAR"
        },
        {
            "bufferView" : 24,
            "componentType" : 5126,
            "count" : 210,
            "max" : [
                0.7895036935806274,
                0.7775092720985413,
                0.24170108139514923
            ],
            "min" : [
                -0.7895037531852722,
                -0.7775093913078308,
                -0.048905495554208755
            ],
            "type" : "VEC3"
        },
        {
            "bufferView" : 25,
            "componentType" : 5126,
            "count" : 210,
            "type" : "VEC2"
        },
        {
            "bufferView" : 26,
            "componentType" : 5126,
            "count" : 210,
            "type" : "VEC3"
        },
        {
            "bufferView" : 27,
            "componentType" : 5123,
            "count" : 540,
            "type" : "SCALAR"
        },
        {
            "bufferView" : 28,
            "componentType" : 5126,
            "count" : 2809,
            "max" : [
                5.756999969482422,
                5.75700044631958,
                15
            ],
            "min" : [
                -5.756999969482422,
                -5.756999969482422,
                7.449810028076172
            ],
            "type" : "VEC3"
        },
        {
            "bufferView" : 29,
            "componentType" : 5126,
            "count" : 2809,
            "type" : "VEC2"
        },
        {
            "bufferView" : 30,
            "componentType" : 5126,
            "count" : 2809,
            "type" : "VEC3"
        },
        {
            "bufferView" : 31,
            "componentType" : 5123,
            "count" : 4950,
            "type" : "SCALAR"
        },
        {
            "bufferView" : 32,
            "componentType" : 5126,
            "count" : 161,
            "max" : [
                6.666666666666667
            ],
            "min" : [
                0
            ],
            "type" : "SCALAR"
        },
        {
            "bufferView" : 33,
            "componentType" : 5126,
            "count" : 161,
            "type" : "VEC3"
        },
        {
            "bufferView" : 34,
            "componentType" : 5126,
            "count" : 161,
            "type" : "VEC3"
        },
        {
            "bufferView" : 35,
            "componentType" : 5126,
            "count" : 161,
            "type" : "VEC4"
        },
        {
            "bufferView" : 36,
            "componentType" : 5126,
            "count" : 161,
            "type" : "VEC3"
        },
        {
            "bufferView" : 37,
            "componentType" : 5126,
            "count" : 1,
            "max" : [
                0
            ],
            "min" : [
                0
            ],
            "type" : "SCALAR"
        },
        {
            "bufferView" : 38,
            "componentType" : 5126,
            "count" : 1,
            "type" : "VEC4"
        },
        {
            "bufferView" : 39,
            "componentType" : 5126,
            "count" : 161,
            "type" : "VEC3"
        },
        {
            "bufferView" : 40,
            "componentType" : 5126,
            "count" : 161,
            "type" : "VEC4"
        },
        {
            "bufferView" : 41,
            "componentType" : 5126,
            "count" : 161,
            "type" : "VEC3"
        },
        {
            "bufferView" : 42,
            "componentType" : 5126,
            "count" : 161,
            "type" : "VEC4"
        },
        {
            "bufferView" : 43,
            "componentType" : 5126,
            "count" : 161,
            "type" : "VEC3"
        },
        {
            "bufferView" : 44,
            "componentType" : 5126,
            "count" : 161,
            "type" : "VEC4"
        },
        {
            "bufferView" : 45,
            "componentType" : 5126,
            "count" : 161,
            "type" : "VEC3"
        },
        {
            "bufferView" : 46,
            "componentType" : 5126,
            "count" : 1,
            "type" : "VEC4"
        },
        {
            "bufferView" : 47,
            "componentType" : 5126,
            "count" : 161,
            "type" : "VEC3"
        },
        {
            "bufferView" : 48,
            "componentType" : 5126,
            "count" : 161,
            "type" : "VEC3"
        },
        {
            "bufferView" : 49,
            "componentType" : 5126,
            "count" : 161,
            "type" : "VEC4"
        },
        {
            "bufferView" : 50,
            "componentType" : 5126,
            "count" : 161,
            "type" : "VEC3"
        },
        {
            "bufferView" : 51,
            "componentType" : 5126,
            "count" : 161,
            "type" : "VEC3"
        },
        {
            "bufferView" : 52,
            "componentType" : 5126,
            "count" : 161,
            "type" : "VEC4"
        },
        {
            "bufferView" : 53,
            "componentType" : 5126,
            "count" : 161,
            "type" : "VEC3"
        },
        {
            "bufferView" : 54,
            "componentType" : 5126,
            "count" : 161,
            "type" : "VEC3"
        },
        {
            "bufferView" : 55,
            "componentType" : 5126,
            "count" : 161,
            "type" : "VEC4"
        }
    ],
    "bufferViews" : [
        {
            "buffer" : 0,
            "byteLength" : 6984,
            "byteOffset" : 0,
            "target" : 34962
        },
        {
            "buffer" : 0,
            "byteLength" : 4656,
            "byteOffset" : 6984,
            "target" : 34962
        },
        {
            "buffer" : 0,
            "byteLength" : 6984,
            "byteOffset" : 11640,
            "target" : 34962
        },
        {
            "buffer" : 0,
            "byteLength" : 5760,
            "byteOffset" : 18624,
            "target" : 34963
        },
        {
            "buffer" : 0,
            "byteLength" : 1008,
            "byteOffset" : 24384,
            "target" : 34962
        },
        {
            "buffer" : 0,
            "byteLength" : 672,
            "byteOffset" : 25392,
            "target" : 34962
        },
        {
            "buffer" : 0,
            "byteLength" : 1008,
            "byteOffset" : 26064,
            "target" : 34962
        },
        {
            "buffer" : 0,
            "byteLength" : 768,
            "byteOffset" : 27072,
            "target" : 34963
        },
        {
            "buffer" : 0,
            "byteLength" : 1992,
            "byteOffset" : 27840,
            "target" : 34962
        },
        {
            "buffer" : 0,
            "byteLength" : 1328,
            "byteOffset" : 29832,
            "target" : 34962
        },
        {
            "buffer" : 0,
            "byteLength" : 1992,
            "byteOffset" : 31160,
            "target" : 34962
        },
        {
            "buffer" : 0,
            "byteLength" : 1152,
            "byteOffset" : 33152,
            "target" : 34963
        },
        {
            "buffer" : 0,
            "byteLength" : 1956,
            "byteOffset" : 34304,
            "target" : 34962
        },
        {
            "buffer" : 0,
            "byteLength" : 1304,
            "byteOffset" : 36260,
            "target" : 34962
        },
        {
            "buffer" : 0,
            "byteLength" : 1956,
            "byteOffset" : 37564,
            "target" : 34962
        },
        {
            "buffer" : 0,
            "byteLength" : 1632,
            "byteOffset" : 39520,
            "target" : 34963
        },
        {
            "buffer" : 0,
            "byteLength" : 4200,
            "byteOffset" : 41152,
            "target" : 34962
        },
        {
            "buffer" : 0,
            "byteLength" : 2800,
            "byteOffset" : 45352,
            "target" : 34962
        },
        {
            "buffer" : 0,
            "byteLength" : 4200,
            "byteOffset" : 48152,
            "target" : 34962
        },
        {
            "buffer" : 0,
            "byteLength" : 2784,
            "byteOffset" : 52352,
            "target" : 34963
        },
        {
            "buffer" : 0,
            "byteLength" : 4116,
            "byteOffset" : 55136,
            "target" : 34962
        },
        {
            "buffer" : 0,
            "byteLength" : 2744,
            "byteOffset" : 59252,
            "target" : 34962
        },
        {
            "buffer" : 0,
            "byteLength" : 4116,
            "byteOffset" : 61996,
            "target" : 34962
        },
        {
            "buffer" : 0,
            "byteLength" : 1560,
            "byteOffset" : 66112,
            "target" : 34963
        },
        {
            "buffer" : 0,
            "byteLength" : 2520,
            "byteOffset" : 67672,
            "target" : 34962
        },
        {
            "buffer" : 0,
            "byteLength" : 1680,
            "byteOffset" : 70192,
            "target" : 34962
        },
        {
            "buffer" : 0,
            "byteLength" : 2520,
            "byteOffset" : 71872,
            "target" : 34962
        },
        {
            "buffer" : 0,
            "byteLength" : 1080,
            "byteOffset" : 74392,
            "target" : 34963
        },
        {
            "buffer" : 0,
            "byteLength" : 33708,
            "byteOffset" : 75472,
            "target" : 34962
        },
        {
            "buffer" : 0,
            "byteLength" : 22472,
            "byteOffset" : 109180,
            "target" : 34962
        },
        {
            "buffer" : 0,
            "byteLength" : 33708,
            "byteOffset" : 131652,
            "target" : 34962
        },
        {
            "buffer" : 0,
            "byteLength" : 9900,
            "byteOffset" : 165360,
            "target" : 34963
        },
        {
            "buffer" : 0,
            "byteLength" : 644,
            "byteOffset" : 175260
        },
        {
            "buffer" : 0,
            "byteLength" : 1932,
            "byteOffset" : 175904
        },
        {
            "buffer" : 0,
            "byteLength" : 1932,
            "byteOffset" : 177836
        },
        {
            "buffer" : 0,
            "byteLength" : 2576,
            "byteOffset" : 179768
        },
        {
            "buffer" : 0,
            "byteLength" : 1932,
            "byteOffset" : 182344
        },
        {
            "buffer" : 0,
            "byteLength" : 4,
            "byteOffset" : 184276
        },
        {
            "buffer" : 0,
            "byteLength" : 16,
            "byteOffset" : 184280
        },
        {
            "buffer" : 0,
            "byteLength" : 1932,
            "byteOffset" : 184296
        },
        {
            "buffer" : 0,
            "byteLength" : 2576,
            "byteOffset" : 186228
        },
        {
            "buffer" : 0,
            "byteLength" : 1932,
            "byteOffset" : 188804
        },
        {
            "buffer" : 0,
            "byteLength" : 2576,
            "byteOffset" : 190736
        },
        {
            "buffer" : 0,
            "byteLength" : 1932,
            "byteOffset" : 193312
        },
        {
            "buffer" : 0,
            "byteLength" : 2576,
            "byteOffset" : 195244
        },
        {
            "buffer" : 0,
            "byteLength" : 1932,
            "byteOffset" : 197820
        },
        {
            "buffer" : 0,
            "byteLength" : 16,
            "byteOffset" : 199752
        },
        {
            "buffer" : 0,
            "byteLength" : 1932,
            "byteOffset" : 199768
        },
        {
            "buffer" : 0,
            "byteLength" : 1932,
            "byteOffset" : 201700
        },
        {
            "buffer" : 0,
            "byteLength" : 2576,
            "byteOffset" : 203632
        },
        {
            "buffer" : 0,
            "byteLength" : 1932,
            "byteOffset" : 206208
        },
        {
            "buffer" : 0,
            "byteLength" : 1932,
            "byteOffset" : 208140
        },
        {
            "buffer" : 0,
            "byteLength" : 2576,
            "byteOffset" : 210072
        },
        {
            "buffer" : 0,
            "byteLength" : 1932,
            "byteOffset" : 212648
        },
        {
            "buffer" : 0,
            "byteLength" : 1932,
            "byteOffset" : 214580
        },
        {
            "buffer" : 0,
            "byteLength" : 2576,
            "byteOffset" : 216512
        }
    ],
    "samplers" : [
        {
            "magFilter" : 9729,
            "minFilter" : 9987
        }
    ],
    "buffers" : [
        {
            "byteLength" : 219088,
            "uri" : "scene.bin"
        }
    ]
}
